<svg width="24" height="24" viewBox="0 0 24 24" fill="none" xmlns="http://www.w3.org/2000/svg">
<path d="M11.8929 18.195L12.0059 18.202C12.2251 18.202 12.4367 18.1221 12.6011 17.9772C12.7655 17.8323 12.8714 17.6324 12.8989 17.415L12.9059 17.302V8.90901L15.3239 11.319C15.4743 11.4463 15.6621 11.521 15.8589 11.5319C16.0556 11.5427 16.2505 11.489 16.4139 11.379L16.5099 11.303C16.6722 11.1581 16.7764 10.9593 16.8032 10.7434C16.8301 10.5275 16.7778 10.3092 16.6559 10.129L16.5809 10.033L12.7159 6.10001C12.559 5.92537 12.3403 5.81864 12.106 5.8024C11.8718 5.78616 11.6405 5.86169 11.4609 6.01301L7.41192 10.033C7.33272 10.1207 7.27158 10.2231 7.23202 10.3344C7.19246 10.4457 7.17525 10.5637 7.18139 10.6817C7.18752 10.7997 7.21687 10.9153 7.26775 11.0219C7.31864 11.1285 7.39006 11.224 7.47792 11.303C7.63999 11.4488 7.84925 11.531 8.06719 11.5347C8.28512 11.5384 8.49704 11.4632 8.66392 11.323L11.1049 8.95501V17.302C11.1049 17.5213 11.185 17.7331 11.3301 17.8975C11.4752 18.0619 11.6753 18.1677 11.8929 18.195Z" fill="white"/>
</svg>
