<svg width="260" height="260" viewBox="0 0 260 260" fill="none" xmlns="http://www.w3.org/2000/svg">
<path d="M197.103 121.647C195.004 114.322 187.131 111.183 173.484 112.229L168.76 112.752C160.362 113.276 149.339 114.322 137.792 115.892C176.108 91.3 240.669 58.3367 241.193 58.3367L239.094 49.9651C238.044 45.7793 232.795 44.2096 228.071 46.3025C215.474 52.5812 153.538 86.0677 123.62 105.427C145.14 56.2438 165.086 15.9553 165.086 14.9089L156.163 12.816C151.964 11.7695 146.19 14.3856 144.09 19.0947C136.742 34.2683 120.996 68.278 103.675 106.997C93.7018 91.3 81.1046 78.2193 73.7563 70.8941C70.607 67.7548 64.8333 68.8012 61.1591 72.4638L53.8108 79.789C53.8108 79.789 74.8061 98.6252 88.453 120.601C68.5075 123.217 49.6118 125.833 35.44 128.972C30.1911 130.019 26.517 134.728 26.517 139.437L27.5667 148.855C38.5892 145.716 55.3854 143.099 74.2812 140.483C57.485 153.041 40.1639 167.691 22.3179 183.911C18.1189 187.574 17.594 192.806 20.2184 195.945L25.9921 202.224C45.9376 183.911 65.3582 167.691 84.2539 153.564C71.1319 185.481 59.5845 216.351 53.2859 239.896L52.761 240.943C50.6615 248.268 58.5347 252.454 65.3582 247.745L66.408 247.222C68.5075 245.652 124.67 207.456 156.163 179.202C188.705 149.901 200.778 133.158 197.103 121.647ZM145.14 166.645C126.244 183.388 97.376 204.84 77.9553 218.967C86.3534 194.376 97.9008 165.075 109.973 136.298C131.493 134.205 151.964 132.112 166.135 131.065L170.859 130.542C175.058 130.019 177.683 130.542 178.733 130.542C177.683 133.158 172.434 142.576 145.14 166.645Z" fill="#0057AD"/>
</svg>
