<svg width="122" height="41" viewBox="0 0 122 41" fill="none" xmlns="http://www.w3.org/2000/svg"><g clip-path="url(#a)" fill="#fff"><path fill-rule="evenodd" clip-rule="evenodd" d="M22.08.15H8.919C4.381.15.688 3.742.687 8.052c0 2.52 1.263 4.796 3.22 6.25-1.957 1.454-3.22 3.729-3.22 6.25 0 2.52 1.263 4.795 3.221 6.25-1.958 1.455-3.222 3.73-3.222 6.25 0 4.31 3.694 7.9 8.232 7.9 4.539 0 8.231-3.591 8.231-7.901V26.86a8.376 8.376 0 0 0 4.932 1.592c4.537 0 8.23-3.59 8.23-7.9 0-2.521-1.263-4.796-3.221-6.25 1.958-1.454 3.222-3.73 3.222-6.25 0-4.311-3.694-7.902-8.232-7.902ZM8.919 28.452h4.931v4.599c0 2.548-2.248 4.6-4.931 4.6-2.682 0-4.932-2.052-4.932-4.599s2.25-4.6 4.932-4.6Zm13.162-12.5c-2.683 0-4.931 2.052-4.931 4.6 0 2.547 2.248 4.6 4.932 4.6 2.68 0 4.93-2.053 4.93-4.6 0-2.548-2.25-4.6-4.931-4.6ZM3.987 20.553c0-2.528 2.215-4.57 4.87-4.6l.062-.001h4.931v9.2H8.919c-2.682 0-4.932-2.053-4.932-4.599ZM13.85 3.452v9.2H8.919c-2.682 0-4.932-2.052-4.932-4.6 0-2.548 2.25-4.6 4.932-4.6h4.931Zm8.231 9.199H17.15V3.452h4.932c2.68 0 4.93 2.052 4.93 4.599 0 2.549-2.25 4.6-4.931 4.6Z"/><path d="M48.757 27.978V7.458h10.89v2.58H51.39v5.604h6.35v2.58h-6.35v9.776l-2.632-.02ZM65.052 11.497a1.73 1.73 0 0 1-.662.133 1.718 1.718 0 0 1-1.728-1.733 1.73 1.73 0 0 1 1.728-1.734c.964 0 1.728.766 1.728 1.734a1.73 1.73 0 0 1-1.066 1.6ZM63.044 27.998V14.21h2.632v13.788h-2.632Z"/><path fill-rule="evenodd" clip-rule="evenodd" d="M69.513 20.297c0-3.527 2.431-6.49 5.927-6.49 1.608 0 2.914.625 3.878 1.653v-1.23h2.632v12.76a6.875 6.875 0 0 1-1.085 3.689 6.715 6.715 0 0 1-9.322 2.016l1.326-2.298c.663.464 1.486.786 2.331.786h.04c2.29-.02 4.098-1.915 4.078-4.193v-1.834c-.964 1.028-2.27 1.633-3.878 1.633-3.496 0-5.927-2.963-5.927-6.492Zm6.23-3.91c-1.93 0-3.598 1.714-3.598 3.91 0 2.177 1.668 3.891 3.597 3.891 1.91 0 3.576-1.693 3.576-3.891 0-2.176-1.647-3.91-3.576-3.91Z"/><path d="M89.432 17.247a2.852 2.852 0 0 1 2.002-.86c1.567.02 2.813 1.311 2.813 2.883v8.708H96.9V19.27a2.852 2.852 0 0 1 2.813-2.883c1.567.02 2.812 1.311 2.812 2.883v8.708h2.612V19.23c0-3.003-1.868-5.423-4.862-5.423a5.045 5.045 0 0 0-4.179 2.318c-.804-1.411-2.23-2.318-4.079-2.318a4.137 4.137 0 0 0-3.395 1.653v-1.27H85.99v13.788h2.632V19.27a2.852 2.852 0 0 1 .81-2.023Z"/><path fill-rule="evenodd" clip-rule="evenodd" d="M117.044 14.3a6.31 6.31 0 0 1 2.117 1.462V14.19h2.632v13.788h-2.632v-1.572a6.503 6.503 0 0 1-4.642 1.955c-3.918 0-6.69-3.306-6.69-7.277 0-3.951 2.772-7.277 6.69-7.277a6.306 6.306 0 0 1 2.525.494Zm-2.223 2.067c-2.351 0-4.36 2.097-4.36 4.717 0 2.641 2.029 4.717 4.34 4.697 2.35 0 4.36-2.077 4.36-4.697s-2.01-4.697-4.34-4.717Z"/></g><defs><clipPath id="a"><path fill="#fff" d="M0 0h122v41H0z"/></clipPath></defs></svg>