<svg width="122" height="41" viewBox="0 0 122 41" fill="none" xmlns="http://www.w3.org/2000/svg"><g clip-path="url(#a)"><path d="m39.028 29.652 1.524-3.54c1.647 1.23 3.834 1.868 5.997 1.868 1.597 0 2.605-.614 2.605-1.548-.025-2.605-9.56-.565-9.634-7.103-.025-3.318 2.924-5.874 7.102-5.874 2.483 0 4.965.615 6.735 2.016l-1.426 3.613c-1.622-1.033-3.637-1.77-5.554-1.77-1.303 0-2.163.614-2.163 1.4.025 2.557 9.634 1.156 9.732 7.399 0 3.391-2.875 5.775-7.004 5.775-3.023 0-5.8-.713-7.914-2.236Zm58.469-4.818a4.422 4.422 0 0 1-3.834 2.237 4.395 4.395 0 0 1-4.4-4.4c0-2.432 1.967-4.399 4.4-4.399 1.646 0 3.072.91 3.834 2.237l4.202-2.335c-1.572-2.802-4.596-4.719-8.036-4.719-5.088 0-9.217 4.13-9.217 9.217 0 5.087 4.13 9.216 9.217 9.216a9.16 9.16 0 0 0 8.036-4.719l-4.202-2.335ZM56.06 5.813h5.26v25.732h-5.26V5.812Zm52.963 25.732v-7.717l6.243 7.717H122l-7.938-9.167 7.348-8.553h-6.439l-5.948 7.103V5.812h-5.259v25.732h5.259Zm-32.073-6.66c-.761 1.253-2.334 2.187-4.104 2.187a4.395 4.395 0 0 1-4.4-4.4c0-2.432 1.967-4.399 4.4-4.399 1.77 0 3.343.984 4.104 2.262v4.35Zm0-11.06v2.09c-.86-1.451-2.998-2.459-5.234-2.459-4.62 0-8.258 4.08-8.258 9.192s3.637 9.241 8.258 9.241c2.236 0 4.374-1.008 5.234-2.458v2.09h5.26V13.823h-5.26ZM6.513 24.859a3.241 3.241 0 0 1-3.244 3.244A3.241 3.241 0 0 1 .025 24.86a3.241 3.241 0 0 1 3.244-3.244h3.244v3.244Zm1.622 0a3.241 3.241 0 0 1 3.244-3.244 3.241 3.241 0 0 1 3.244 3.244v8.11a3.241 3.241 0 0 1-3.244 3.245 3.241 3.241 0 0 1-3.244-3.245v-8.11Zm3.244-13.026A3.241 3.241 0 0 1 8.135 8.59a3.241 3.241 0 0 1 3.244-3.244 3.241 3.241 0 0 1 3.244 3.244v3.244H11.38Zm0 1.647a3.241 3.241 0 0 1 3.244 3.244 3.241 3.241 0 0 1-3.244 3.244H3.244A3.241 3.241 0 0 1 0 16.724a3.241 3.241 0 0 1 3.244-3.244h8.135Zm13.001 3.244a3.241 3.241 0 0 1 3.245-3.244 3.241 3.241 0 0 1 3.244 3.244 3.241 3.241 0 0 1-3.244 3.244H24.38v-3.244Zm-1.622 0a3.241 3.241 0 0 1-3.244 3.244 3.241 3.241 0 0 1-3.244-3.244V8.59a3.241 3.241 0 0 1 3.244-3.244 3.241 3.241 0 0 1 3.244 3.244v8.135Zm-3.244 13.001a3.241 3.241 0 0 1 3.244 3.244 3.241 3.241 0 0 1-3.244 3.245 3.241 3.241 0 0 1-3.244-3.245v-3.244h3.244Zm0-1.622a3.241 3.241 0 0 1-3.244-3.244 3.241 3.241 0 0 1 3.244-3.244h8.135a3.241 3.241 0 0 1 3.244 3.244 3.241 3.241 0 0 1-3.244 3.244h-8.135Z" fill="#fff"/></g><defs><clipPath id="a"><path fill="#fff" d="M0 0h122v41H0z"/></clipPath></defs></svg>