<svg width="122" height="41" viewBox="0 0 122 41" fill="none" xmlns="http://www.w3.org/2000/svg">
<path d="M0 20.891C0 12.667 6.66817 6 14.891 6C23.1161 6 29.7831 12.667 29.7831 20.891C29.7831 27.4685 25.5212 33.0491 19.6071 35.0197C18.8531 35.1661 18.5847 34.7014 18.5847 34.3052C18.5847 34.1426 18.5866 33.8576 18.5891 33.4767C18.5943 32.7087 18.6021 31.5507 18.6021 30.2187C18.6021 28.8291 18.1257 27.9228 17.5924 27.4615C20.9085 27.0921 24.3919 25.8337 24.3919 20.1137C24.3919 18.4882 23.8144 17.1589 22.8593 16.1167C23.0138 15.7414 23.5239 14.2263 22.7129 12.1755C22.7129 12.1755 21.4639 11.7758 18.6218 13.7023C17.4056 13.372 16.1512 13.2032 14.891 13.2003C13.6322 13.2031 12.3794 13.3719 11.1647 13.7023C8.31924 11.7758 7.06787 12.1755 7.06787 12.1755C6.25918 14.2263 6.76926 15.7414 6.92379 16.1167C5.97103 17.1589 5.38891 18.4882 5.38891 20.1137C5.38891 25.8198 8.8665 27.0967 12.1744 27.4732C11.748 27.845 11.3623 28.5014 11.2286 29.4647C10.3793 29.8446 8.2228 30.5034 6.89474 28.2261C6.89474 28.2261 6.10813 26.7969 4.61276 26.6912C4.61276 26.6912 3.15922 26.6726 4.51051 27.5975C4.51051 27.5975 5.48651 28.0553 6.1639 29.7761C6.1639 29.7761 7.03766 32.4333 11.181 31.5329C11.1843 32.2282 11.19 32.9014 11.1945 33.422C11.198 33.833 11.2008 34.1488 11.2008 34.3052C11.2008 34.699 10.9277 35.1592 10.1841 35.0221C4.26651 33.0526 0 27.4708 0 20.891Z" fill="white"/>
<path d="M5.38525 27.4267C5.49099 27.4767 5.60718 27.4546 5.63971 27.3803C5.67689 27.3071 5.61531 27.2048 5.50725 27.156C5.3992 27.1049 5.28301 27.127 5.25163 27.2025C5.21562 27.2768 5.27603 27.3779 5.38525 27.4267Z" fill="white"/>
<path d="M5.93948 27.9844C6.0336 28.089 6.17186 28.1192 6.2439 28.0542C6.3171 27.9868 6.29851 27.8497 6.20091 27.7439C6.10331 27.6405 5.96853 27.6092 5.89533 27.6754C5.82329 27.7416 5.84188 27.881 5.93948 27.9844Z" fill="white"/>
<path d="M6.4972 28.7827C6.59015 28.9151 6.73887 28.9744 6.83066 28.9116C6.92362 28.8466 6.92362 28.6874 6.83299 28.5526C6.73887 28.4213 6.59247 28.3644 6.49952 28.4283C6.40657 28.491 6.40657 28.6502 6.4972 28.7827Z" fill="white"/>
<path d="M7.25243 29.6832C7.37908 29.8052 7.55337 29.8296 7.6347 29.7401C7.72184 29.6506 7.68234 29.4787 7.55337 29.359C7.4244 29.237 7.25011 29.2126 7.16762 29.3021C7.08512 29.3927 7.1223 29.5623 7.25243 29.6832Z" fill="white"/>
<path d="M8.37251 30.3408C8.54099 30.3908 8.7083 30.3373 8.74432 30.2211C8.77918 30.1026 8.6688 29.9667 8.50032 29.9155C8.33068 29.8633 8.16221 29.9179 8.12735 30.0352C8.09365 30.1537 8.20403 30.2897 8.37251 30.3408Z" fill="white"/>
<path d="M9.64712 30.5372C9.82489 30.5348 9.96781 30.4326 9.96316 30.3106C9.96316 30.1886 9.81792 30.0898 9.64131 30.0933C9.46354 30.0956 9.32295 30.1967 9.32295 30.321C9.32527 30.4419 9.46935 30.5406 9.64712 30.5372Z" fill="white"/>
<path d="M10.8195 30.3931C10.9949 30.3594 11.1181 30.2374 11.0972 30.1177C11.0751 29.9957 10.9171 29.9237 10.7416 29.9539C10.5685 29.9853 10.443 30.1084 10.4651 30.2316C10.4872 30.3501 10.6464 30.4244 10.8195 30.3931Z" fill="white"/>
<path d="M46.0101 20.1207H53.1732C53.2621 20.121 53.3472 20.1565 53.4099 20.2194C53.4726 20.2824 53.5079 20.3676 53.5079 20.4565V31.3795C53.5079 31.4423 53.4974 31.5794 53.3986 31.6328C53.3986 31.6328 51.0214 33.3071 47.1034 33.3071C42.371 33.3071 36.7544 31.8501 36.7544 22.0692C36.7544 12.2883 41.6599 10.2538 46.4423 10.2538C50.5926 10.2538 52.2367 11.174 52.5051 11.3657C52.546 11.3957 52.5791 11.4351 52.6013 11.4807C52.6236 11.5262 52.6344 11.5765 52.6329 11.6272L51.8336 15.0106C51.8336 15.1965 51.6418 15.4033 51.4327 15.3394C51.3648 15.3185 51.293 15.2953 51.2161 15.2704C50.5416 15.0522 49.4795 14.7085 47.3079 14.7085C44.5136 14.7085 41.5368 15.5358 41.5368 21.824C41.5368 28.1111 44.395 28.8582 46.4423 28.8582C48.177 28.8582 48.8045 28.6444 48.8045 28.6444V24.2931H46.0101C45.8242 24.2931 45.6743 24.1432 45.6743 23.9585V20.4565C45.6746 20.3675 45.7101 20.2823 45.773 20.2194C45.8359 20.1565 45.9211 20.121 46.0101 20.1207Z" fill="white"/>
<path d="M89.757 11.0892C89.9417 11.0892 90.0904 11.2402 90.0904 11.4261V32.5321C90.0893 32.7181 89.9417 32.8691 89.757 32.8691H85.7147C85.53 32.8691 85.3801 32.7181 85.3801 32.5321L85.3905 23.5041H79.1046V32.5321C79.1046 32.7181 78.9559 32.8691 78.7712 32.8691H74.7382C74.5546 32.8691 74.4047 32.7181 74.4047 32.5321V11.4261C74.4044 11.3373 74.4393 11.2519 74.5018 11.1888C74.5643 11.1256 74.6493 11.0898 74.7382 11.0892H78.7712C78.9559 11.0892 79.1046 11.2402 79.1046 11.4261V19.2214H85.3905V11.4261C85.3902 11.3821 85.3986 11.3384 85.4152 11.2976C85.4318 11.2569 85.4563 11.2197 85.4873 11.1884C85.5183 11.1571 85.5551 11.1323 85.5957 11.1152C85.6364 11.0982 85.6799 11.0893 85.724 11.0892H89.757Z" fill="white"/>
<path d="M58.1834 11.5702C59.6195 11.5702 60.7837 12.7437 60.7837 14.1961C60.7837 15.6462 59.6195 16.8232 58.1834 16.8232C56.7484 16.8232 55.583 15.6462 55.583 14.1961C55.5813 13.853 55.6473 13.5128 55.777 13.1951C55.9068 12.8775 56.0979 12.5885 56.3393 12.3446C56.5808 12.1008 56.8679 11.9069 57.1843 11.774C57.5007 11.6411 57.8402 11.5719 58.1834 11.5702Z" fill="white"/>
<path d="M60.4956 18.3372V32.3277C60.4956 32.6716 60.398 32.8668 60.0006 32.8668H56.3778C56.0478 32.8668 55.7922 32.7448 55.7922 32.3346V18.3767C55.7922 18.1908 55.9572 18.0014 56.1419 18.0014H60.1621C60.206 18.0015 60.2495 18.0103 60.2901 18.0273C60.3306 18.0442 60.3674 18.069 60.3984 18.1002C60.4293 18.1314 60.4539 18.1684 60.4705 18.209C60.4872 18.2497 60.4957 18.2932 60.4956 18.3372Z" fill="white"/>
<path d="M101.417 18.0327H105.418C105.507 18.0333 105.592 18.0691 105.655 18.1322C105.718 18.1954 105.753 18.2807 105.753 18.3697L105.754 32.538C105.754 32.7239 105.604 32.8749 105.421 32.8749L102.837 32.8865C102.708 32.8865 102.588 32.7947 102.541 32.7041C102.496 32.6123 102.395 31.8443 102.395 31.8443C102.395 31.8443 100.266 33.3025 97.6254 33.3025C94.4081 33.3025 92.068 32.2754 92.068 28.0786V18.3697C92.068 18.2809 92.103 18.1957 92.1654 18.1327C92.2279 18.0696 92.3127 18.0337 92.4015 18.0327H96.4646C96.6482 18.0327 96.7969 18.1838 96.7969 18.3697V27.3954C96.7969 28.8082 97.1804 29.4636 98.6235 29.4636C100.067 29.4636 101.083 28.7188 101.083 28.7188V18.3697C101.083 18.2808 101.118 18.1955 101.18 18.1323C101.243 18.0692 101.328 18.0333 101.417 18.0327Z" fill="white"/>
<path fill-rule="evenodd" clip-rule="evenodd" d="M112.538 18.573C112.538 18.573 114.085 17.5587 116.358 17.5587C118.633 17.5587 122 18.4092 122 24.9147C122 31.4202 119.892 33.2851 116.216 33.2851C113.085 33.2851 111.431 31.7177 111.431 31.7177C111.431 31.7177 111.33 32.5775 111.26 32.6902C111.189 32.804 111.094 32.8691 110.968 32.8691H108.162C107.977 32.8691 107.828 32.7181 107.828 32.5321V11.4261C107.828 11.3822 107.836 11.3386 107.853 11.2979C107.869 11.2572 107.894 11.2201 107.924 11.1888C107.955 11.1576 107.992 11.1327 108.032 11.1156C108.073 11.0985 108.116 11.0895 108.16 11.0892H112.206C112.39 11.0892 112.538 11.2402 112.538 11.4261V18.573ZM112.449 28.778C112.449 28.778 113.391 29.4078 114.78 29.4508C116.721 29.5089 117.349 28.7931 117.349 25.168C117.349 21.7288 115.959 21.2942 114.518 21.4232C113.378 21.5243 112.449 22.0948 112.449 22.0948V28.778Z" fill="white"/>
<path d="M69.0623 17.999H72.0879C72.1319 17.9992 72.1755 18.008 72.2161 18.0251C72.2567 18.0421 72.2936 18.067 72.3246 18.0983C72.3555 18.1296 72.3801 18.1667 72.3967 18.2075C72.4133 18.2483 72.4217 18.292 72.4213 18.336V21.587C72.4213 21.7729 72.2726 21.924 72.0879 21.924H69.0623V27.8578C69.0623 28.7525 69.5654 29.4426 71.0515 29.4426C71.339 29.4426 71.6212 29.4155 71.8364 29.3948C71.9691 29.3821 72.0763 29.3718 72.1436 29.3718C72.2323 29.3733 72.3169 29.4093 72.3794 29.4723C72.4419 29.5352 72.4774 29.62 72.4783 29.7087L72.4748 32.5635C72.4748 32.6983 72.4051 32.8226 72.2854 32.8668C72.0867 32.94 70.8876 33.2618 69.8837 33.2618C67.6889 33.2618 64.4356 32.8064 64.4356 28.168V21.924H62.3221C62.1373 21.924 61.9886 21.7729 61.9886 21.587V18.9913C61.9885 18.9187 62.0121 18.848 62.0556 18.79C62.0992 18.7319 62.1605 18.6896 62.2303 18.6695C62.3697 18.6288 64.4356 18.1303 64.4356 18.1303V13.9998C64.4356 13.8452 64.5216 13.7755 64.6819 13.7755H68.8043C68.9798 13.7755 69.0576 13.851 69.0576 14.0021L69.0623 17.999Z" fill="white"/>
</svg>
