<svg width="1202" height="1264" viewBox="0 0 1202 1264" fill="none" xmlns="http://www.w3.org/2000/svg">
<g clip-path="url(#clip0_1525_6734)">
<mask id="mask0_1525_6734" style="mask-type:alpha" maskUnits="userSpaceOnUse" x="326" y="344" width="896" height="934">
<path d="M426.5 1158.5C426.5 1206.5 413.5 1257.5 407 1277H1221.5V429.5C1163 429.5 1156.5 344.5 1037 344.5C917.5 344.5 865.5 451.5 783.5 451.5C701.5 451.5 562.5 388.5 458 509C353.5 629.5 391 696.5 391 756.5C391 816.5 327 839 327 906C327 978 426.5 1055 426.5 1158.5Z" fill="#D9D9D9" stroke="black"/>
</mask>
<g mask="url(#mask0_1525_6734)">
<rect width="1202" height="1264" fill="url(#paint0_linear_1525_6734)"/>
<path style="mix-blend-mode:multiply" d="M471.535 563.01C475.417 563.01 478.565 559.863 478.565 555.98C478.565 552.097 475.417 548.95 471.535 548.95C467.652 548.95 464.505 552.097 464.505 555.98C464.505 559.863 467.652 563.01 471.535 563.01Z" fill="url(#paint1_radial_1525_6734)"/>
<path d="M469.854 550.62C469.854 554.5 473.004 557.65 476.884 557.65C480.764 557.65 483.914 554.5 483.914 550.62C483.914 546.74 480.764 543.59 476.884 543.59C473.004 543.59 469.854 546.74 469.854 550.62Z" fill="url(#paint2_linear_1525_6734)"/>
<path style="mix-blend-mode:multiply" d="M362.898 999.543C367.025 998.873 369.827 994.984 369.157 990.857C368.487 986.731 364.599 983.928 360.472 984.598C356.345 985.268 353.543 989.156 354.213 993.283C354.883 997.41 358.771 1000.21 362.898 999.543Z" fill="url(#paint3_radial_1525_6734)"/>
<path d="M367.424 993.88C371.605 993.88 374.994 990.491 374.994 986.31C374.994 982.129 371.605 978.74 367.424 978.74C363.244 978.74 359.854 982.129 359.854 986.31C359.854 990.491 363.244 993.88 367.424 993.88Z" fill="url(#paint4_linear_1525_6734)"/>
<path style="mix-blend-mode:multiply" d="M705.865 923.28C710.046 923.28 713.435 919.891 713.435 915.71C713.435 911.529 710.046 908.14 705.865 908.14C701.684 908.14 698.295 911.529 698.295 915.71C698.295 919.891 701.684 923.28 705.865 923.28Z" fill="url(#paint5_radial_1525_6734)"/>
<path d="M711.635 917.51C715.816 917.51 719.205 914.121 719.205 909.94C719.205 905.759 715.816 902.37 711.635 902.37C707.455 902.37 704.065 905.759 704.065 909.94C704.065 914.121 707.455 917.51 711.635 917.51Z" fill="url(#paint6_linear_1525_6734)"/>
<path style="mix-blend-mode:multiply" d="M572.215 531.99C575.208 531.99 577.635 529.563 577.635 526.57C577.635 523.577 575.208 521.15 572.215 521.15C569.222 521.15 566.795 523.577 566.795 526.57C566.795 529.563 569.222 531.99 572.215 531.99Z" fill="url(#paint7_radial_1525_6734)"/>
<path d="M570.925 522.44C570.925 525.43 573.355 527.86 576.345 527.86C579.335 527.86 581.765 525.43 581.765 522.44C581.765 519.45 579.335 517.02 576.345 517.02C573.355 517.02 570.925 519.45 570.925 522.44Z" fill="url(#paint8_linear_1525_6734)"/>
<path style="mix-blend-mode:multiply" d="M1199.77 426.28C1199.77 429.27 1202.2 431.7 1205.19 431.7C1208.18 431.7 1210.61 429.27 1210.61 426.28C1210.61 423.29 1208.18 420.86 1205.19 420.86C1202.2 420.86 1199.77 423.29 1199.77 426.28Z" fill="url(#paint9_radial_1525_6734)"/>
<path style="mix-blend-mode:multiply" d="M747.975 376.08C750.896 376.08 753.265 373.712 753.265 370.79C753.265 367.868 750.896 365.5 747.975 365.5C745.053 365.5 742.685 367.868 742.685 370.79C742.685 373.712 745.053 376.08 747.975 376.08Z" fill="url(#paint10_radial_1525_6734)"/>
<path d="M752.005 372.05C754.926 372.05 757.295 369.682 757.295 366.76C757.295 363.838 754.926 361.47 752.005 361.47C749.083 361.47 746.715 363.838 746.715 366.76C746.715 369.682 749.083 372.05 752.005 372.05Z" fill="url(#paint11_linear_1525_6734)"/>
<path style="mix-blend-mode:multiply" d="M748.975 626.44C748.975 628.69 750.805 630.52 753.055 630.52C755.305 630.52 757.135 628.69 757.135 626.44C757.135 624.19 755.305 622.36 753.055 622.36C750.805 622.36 748.975 624.19 748.975 626.44Z" fill="url(#paint12_radial_1525_6734)"/>
<path d="M752.074 623.33C752.074 625.58 753.904 627.41 756.154 627.41C758.404 627.41 760.234 625.58 760.234 623.33C760.234 621.08 758.404 619.25 756.154 619.25C753.904 619.25 752.074 621.08 752.074 623.33Z" fill="url(#paint13_linear_1525_6734)"/>
<path style="mix-blend-mode:multiply" d="M612.314 778.6C612.314 780.85 614.144 782.68 616.394 782.68C618.644 782.68 620.474 780.85 620.474 778.6C620.474 776.35 618.644 774.52 616.394 774.52C614.144 774.52 612.314 776.35 612.314 778.6Z" fill="url(#paint14_radial_1525_6734)"/>
<path d="M619.494 779.57C621.747 779.57 623.574 777.743 623.574 775.49C623.574 773.237 621.747 771.41 619.494 771.41C617.241 771.41 615.414 773.237 615.414 775.49C615.414 777.743 617.241 779.57 619.494 779.57Z" fill="url(#paint15_linear_1525_6734)"/>
<path style="mix-blend-mode:multiply" d="M750.065 1255.45C754.052 1255.45 757.285 1252.22 757.285 1248.23C757.285 1244.24 754.052 1241.01 750.065 1241.01C746.077 1241.01 742.845 1244.24 742.845 1248.23C742.845 1252.22 746.077 1255.45 750.065 1255.45Z" fill="url(#paint16_radial_1525_6734)"/>
<path d="M755.555 1249.95C759.542 1249.95 762.775 1246.72 762.775 1242.73C762.775 1238.74 759.542 1235.51 755.555 1235.51C751.567 1235.51 748.335 1238.74 748.335 1242.73C748.335 1246.72 751.567 1249.95 755.555 1249.95Z" fill="url(#paint17_linear_1525_6734)"/>
<path style="mix-blend-mode:multiply" d="M603.535 1149.4C607.417 1149.4 610.565 1146.25 610.565 1142.37C610.565 1138.49 607.417 1135.34 603.535 1135.34C599.652 1135.34 596.505 1138.49 596.505 1142.37C596.505 1146.25 599.652 1149.4 603.535 1149.4Z" fill="url(#paint18_radial_1525_6734)"/>
<path d="M608.884 1144.04C612.767 1144.04 615.914 1140.89 615.914 1137.01C615.914 1133.13 612.767 1129.98 608.884 1129.98C605.002 1129.98 601.854 1133.13 601.854 1137.01C601.854 1140.89 605.002 1144.04 608.884 1144.04Z" fill="url(#paint19_linear_1525_6734)"/>
<path style="mix-blend-mode:multiply" d="M423.535 1209.4C427.417 1209.4 430.565 1206.25 430.565 1202.37C430.565 1198.49 427.417 1195.34 423.535 1195.34C419.652 1195.34 416.505 1198.49 416.505 1202.37C416.505 1206.25 419.652 1209.4 423.535 1209.4Z" fill="url(#paint20_radial_1525_6734)"/>
<path d="M428.884 1204.04C432.767 1204.04 435.914 1200.89 435.914 1197.01C435.914 1193.13 432.767 1189.98 428.884 1189.98C425.002 1189.98 421.854 1193.13 421.854 1197.01C421.854 1200.89 425.002 1204.04 428.884 1204.04Z" fill="url(#paint21_linear_1525_6734)"/>
<path style="mix-blend-mode:multiply" d="M1036.63 791.86C1036.63 795.74 1039.78 798.89 1043.66 798.89C1047.54 798.89 1050.69 795.74 1050.69 791.86C1050.69 787.98 1047.54 784.83 1043.66 784.83C1039.78 784.83 1036.63 787.98 1036.63 791.86Z" fill="url(#paint22_radial_1525_6734)"/>
<path d="M1049.03 793.53C1052.91 793.53 1056.06 790.383 1056.06 786.5C1056.06 782.617 1052.91 779.47 1049.03 779.47C1045.14 779.47 1042 782.617 1042 786.5C1042 790.383 1045.14 793.53 1049.03 793.53Z" fill="url(#paint23_linear_1525_6734)"/>
<path style="mix-blend-mode:multiply" d="M1207.33 838.54C1210.83 838.54 1213.66 835.706 1213.66 832.21C1213.66 828.714 1210.83 825.88 1207.33 825.88C1203.84 825.88 1201 828.714 1201 832.21C1201 835.706 1203.84 838.54 1207.33 838.54Z" fill="url(#paint24_radial_1525_6734)"/>
<path style="mix-blend-mode:multiply" d="M1001.16 982.426C1005.29 981.756 1008.09 977.868 1007.42 973.741C1006.75 969.614 1002.86 966.812 998.738 967.482C994.611 968.152 991.809 972.04 992.479 976.167C993.148 980.294 997.037 983.096 1001.16 982.426Z" fill="url(#paint25_radial_1525_6734)"/>
<path d="M1005.7 976.8C1009.88 976.8 1013.27 973.411 1013.27 969.23C1013.27 965.049 1009.88 961.66 1005.7 961.66C1001.51 961.66 998.125 965.049 998.125 969.23C998.125 973.411 1001.51 976.8 1005.7 976.8Z" fill="url(#paint26_linear_1525_6734)"/>
<path style="mix-blend-mode:multiply" d="M1045.65 1094.04C1049.84 1094.04 1053.22 1090.65 1053.22 1086.47C1053.22 1082.29 1049.84 1078.9 1045.65 1078.9C1041.47 1078.9 1038.08 1082.29 1038.08 1086.47C1038.08 1090.65 1041.47 1094.04 1045.65 1094.04Z" fill="url(#paint27_radial_1525_6734)"/>
<path d="M1051.42 1088.27C1055.61 1088.27 1058.99 1084.88 1058.99 1080.7C1058.99 1076.52 1055.61 1073.13 1051.42 1073.13C1047.24 1073.13 1043.85 1076.52 1043.85 1080.7C1043.85 1084.88 1047.24 1088.27 1051.42 1088.27Z" fill="url(#paint28_linear_1525_6734)"/>
<path style="mix-blend-mode:multiply" d="M945.865 1209.67C950.046 1209.67 953.435 1206.28 953.435 1202.1C953.435 1197.92 950.046 1194.53 945.865 1194.53C941.684 1194.53 938.295 1197.92 938.295 1202.1C938.295 1206.28 941.684 1209.67 945.865 1209.67Z" fill="url(#paint29_radial_1525_6734)"/>
<path d="M951.634 1203.9C955.815 1203.9 959.204 1200.51 959.204 1196.33C959.204 1192.15 955.815 1188.76 951.634 1188.76C947.454 1188.76 944.064 1192.15 944.064 1196.33C944.064 1200.51 947.454 1203.9 951.634 1203.9Z" fill="url(#paint30_linear_1525_6734)"/>
<path style="mix-blend-mode:multiply" d="M388.375 749.9C391.368 749.9 393.795 747.473 393.795 744.48C393.795 741.487 391.368 739.06 388.375 739.06C385.382 739.06 382.955 741.487 382.955 744.48C382.955 747.473 385.382 749.9 388.375 749.9Z" fill="url(#paint31_radial_1525_6734)"/>
<path d="M392.505 745.77C395.498 745.77 397.925 743.343 397.925 740.35C397.925 737.357 395.498 734.93 392.505 734.93C389.512 734.93 387.085 737.357 387.085 740.35C387.085 743.343 389.512 745.77 392.505 745.77Z" fill="url(#paint32_linear_1525_6734)"/>
<path style="mix-blend-mode:multiply" d="M788.215 1010.38C791.208 1010.38 793.635 1007.95 793.635 1004.96C793.635 1001.97 791.208 999.54 788.215 999.54C785.222 999.54 782.795 1001.97 782.795 1004.96C782.795 1007.95 785.222 1010.38 788.215 1010.38Z" fill="url(#paint33_radial_1525_6734)"/>
<path d="M786.925 1000.83C786.925 1003.82 789.355 1006.25 792.345 1006.25C795.335 1006.25 797.765 1003.82 797.765 1000.83C797.765 997.84 795.335 995.41 792.345 995.41C789.355 995.41 786.925 997.84 786.925 1000.83Z" fill="url(#paint34_linear_1525_6734)"/>
<path style="mix-blend-mode:multiply" d="M1199.77 712.67C1199.77 715.66 1202.2 718.09 1205.19 718.09C1208.18 718.09 1210.61 715.66 1210.61 712.67C1210.61 709.68 1208.18 707.25 1205.19 707.25C1202.2 707.25 1199.77 709.68 1199.77 712.67Z" fill="url(#paint35_radial_1525_6734)"/>
<path style="mix-blend-mode:multiply" d="M915.975 782.47C918.896 782.47 921.265 780.102 921.265 777.18C921.265 774.259 918.896 771.89 915.975 771.89C913.053 771.89 910.685 774.259 910.685 777.18C910.685 780.102 913.053 782.47 915.975 782.47Z" fill="url(#paint36_radial_1525_6734)"/>
<path d="M920.005 778.45C922.926 778.45 925.295 776.082 925.295 773.16C925.295 770.239 922.926 767.87 920.005 767.87C917.083 767.87 914.715 770.239 914.715 773.16C914.715 776.082 917.083 778.45 920.005 778.45Z" fill="url(#paint37_linear_1525_6734)"/>
<path style="mix-blend-mode:multiply" d="M1120.98 948.83C1120.98 951.08 1122.81 952.91 1125.06 952.91C1127.31 952.91 1129.14 951.08 1129.14 948.83C1129.14 946.58 1127.31 944.75 1125.06 944.75C1122.81 944.75 1120.98 946.58 1120.98 948.83Z" fill="url(#paint38_radial_1525_6734)"/>
<path d="M1124.08 945.72C1124.08 947.97 1125.91 949.8 1128.16 949.8C1130.41 949.8 1132.24 947.97 1132.24 945.72C1132.24 943.47 1130.41 941.64 1128.16 941.64C1125.91 941.64 1124.08 943.47 1124.08 945.72Z" fill="url(#paint39_linear_1525_6734)"/>
<path style="mix-blend-mode:multiply" d="M1138.42 609.49C1138.42 611.74 1140.24 613.57 1142.49 613.57C1144.74 613.57 1146.58 611.74 1146.58 609.49C1146.58 607.24 1144.74 605.41 1142.49 605.41C1140.24 605.41 1138.42 607.24 1138.42 609.49Z" fill="url(#paint40_radial_1525_6734)"/>
<path d="M1141.53 606.38C1141.53 608.63 1143.36 610.46 1145.61 610.46C1147.86 610.46 1149.69 608.63 1149.69 606.38C1149.69 604.13 1147.86 602.3 1145.61 602.3C1143.36 602.3 1141.53 604.13 1141.53 606.38Z" fill="url(#paint41_linear_1525_6734)"/>
<path style="mix-blend-mode:multiply" d="M1032.31 884.99C1032.31 887.24 1034.14 889.07 1036.39 889.07C1038.64 889.07 1040.47 887.24 1040.47 884.99C1040.47 882.74 1038.64 880.91 1036.39 880.91C1034.14 880.91 1032.31 882.74 1032.31 884.99Z" fill="url(#paint42_radial_1525_6734)"/>
<path d="M1035.41 881.89C1035.41 884.14 1037.24 885.97 1039.49 885.97C1041.74 885.97 1043.57 884.14 1043.57 881.89C1043.57 879.64 1041.74 877.81 1039.49 877.81C1037.24 877.81 1035.41 879.64 1035.41 881.89Z" fill="url(#paint43_linear_1525_6734)"/>
<path style="mix-blend-mode:multiply" d="M954.915 467.54C957.837 467.54 960.205 465.172 960.205 462.25C960.205 459.328 957.837 456.96 954.915 456.96C951.993 456.96 949.625 459.328 949.625 462.25C949.625 465.172 951.993 467.54 954.915 467.54Z" fill="url(#paint44_radial_1525_6734)"/>
<path d="M959.79 463.399C962.674 462.936 964.637 460.222 964.174 457.338C963.711 454.453 960.997 452.49 958.113 452.953C955.228 453.416 953.265 456.13 953.728 459.015C954.191 461.899 956.905 463.862 959.79 463.399Z" fill="url(#paint45_linear_1525_6734)"/>
<path style="mix-blend-mode:multiply" d="M674.314 1088.79C693.871 1203.59 641.797 1322.29 544.433 1386.15C501.323 1414.44 455.372 1429.83 409.716 1434.66C275.419 1449.04 143.603 1370.62 95.9534 1237.85C48.263 1104.96 100.157 960.612 213.001 886.463C232.527 873.574 253.852 862.753 276.836 854.495C449.701 792.467 641.912 898.64 674.303 1088.79L674.314 1088.79Z" fill="url(#paint46_radial_1525_6734)"/>
<path d="M470.811 1228.17C585.104 1199.68 654.659 1083.93 626.164 969.64C597.67 855.352 481.917 785.805 367.623 814.301C253.33 842.797 183.776 958.546 212.27 1072.83C240.764 1187.12 356.517 1256.67 470.811 1228.17Z" fill="#A4357E"/>
<path d="M623.521 960.735C600.73 1009.68 563.291 1070.74 510.272 1103.34C414.131 1162.12 408.801 1046.44 322.465 1054.04C293.022 1056.67 259.632 1082.68 228.215 1115.91C221.272 1102.39 216.015 1088.1 212.218 1072.87C198.353 1017.26 207.685 961.138 234.227 915.205C255.207 920.884 277.466 929.443 297.298 942.556C358.938 983.053 439.86 985.455 493.329 926.794C518.007 899.757 537.06 875.829 555.136 857.026C586.858 883.164 611.318 918.634 623.512 960.749L623.521 960.735Z" fill="#871867"/>
<path d="M557.102 1184.03C532.867 1204.56 503.78 1219.9 470.834 1228.12C418.239 1241.23 365.337 1233.53 320.815 1210.4C366.072 1193.48 442.983 1166.21 473.133 1167.16C496.243 1167.8 526.558 1172.45 557.102 1184.03Z" fill="#871867"/>
<path d="M482.268 817.448C454.498 843.375 424.734 866.599 400.332 874.364C359.022 887.491 314.053 870.857 284.543 855.836C308.15 836.588 336.14 822.088 367.667 814.228C406.991 804.423 446.38 806.271 482.279 817.445L482.268 817.448Z" fill="#871867"/>
<path style="mix-blend-mode:multiply" d="M470.79 1228.19C585.097 1199.69 654.658 1083.92 626.158 969.616C597.659 855.309 481.892 785.749 367.585 814.248C253.279 842.747 183.718 958.514 212.217 1072.82C240.716 1187.13 356.484 1256.69 470.79 1228.19Z" fill="url(#paint47_radial_1525_6734)"/>
<path style="mix-blend-mode:screen" d="M470.79 1228.19C585.097 1199.69 654.658 1083.92 626.158 969.616C597.659 855.309 481.892 785.749 367.585 814.248C253.279 842.747 183.718 958.514 212.217 1072.82C240.716 1187.13 356.484 1256.69 470.79 1228.19Z" fill="url(#paint48_radial_1525_6734)"/>
<path d="M788.126 859.085C773.444 831.364 699.628 839.182 599.006 873.846C595.559 875.005 592.114 876.175 588.702 877.424L588.609 877.447C585.349 878.559 582.221 879.75 578.891 880.978C581.29 883.307 583.489 885.685 585.63 888.177C641.645 872.095 680.998 870.452 689.906 887.198C698.778 903.752 676.057 935.245 632.176 972.524C589.325 1009.04 526.181 1051.22 452.741 1090.51C381.959 1128.33 314.396 1156.78 261.128 1172.59C202.595 1189.91 161.342 1192.03 152.127 1174.85C142.878 1157.58 167.953 1124.19 215.536 1084.78L215.393 1084.21C214.849 1082.03 214.303 1079.84 213.947 1077.61C147.245 1128.95 110.267 1173.68 121.896 1195.6C133.608 1217.5 191.641 1211.51 271.817 1184.25C326.324 1165.72 391.179 1137.34 458.56 1101.26C528.368 1063.98 589.793 1024.25 636.085 988.2C700.104 938.241 735.29 894.861 723.813 873.501C712.857 853.032 661.471 856.965 589.472 879.76C592.919 878.602 596.387 877.525 599.845 876.464C676.335 852.648 731.134 849.073 743.048 871.333C756.138 895.914 713.893 946.198 638.64 1002.89C591.61 1038.43 531.657 1076.38 464.227 1112.25C399.106 1146.86 336.209 1174.65 281.831 1193.65C189.736 1226.1 121.852 1233.83 108.527 1208.71C95.4138 1184.03 137.999 1133.47 213.672 1076.46C213.505 1075.79 213.341 1075.13 213.292 1074.53C114.646 1145.04 57.1707 1209.11 73.1498 1239.24C89.8227 1270.5 181.692 1256.57 302.602 1209.77C355.416 1189.35 413.914 1162.54 473.962 1130.62C536.33 1097.52 593.027 1062.7 640.557 1029.16C743.811 956.509 804.494 889.923 788.141 859.094L788.126 859.085Z" fill="#64144D"/>
<path d="M1136.3 519.092L1262.48 479.964C1265 479.183 1267.67 480.65 1268.36 483.199C1269.06 485.751 1267.5 488.369 1264.92 488.975L1136.3 519.097L1136.3 519.092Z" fill="url(#paint49_linear_1525_6734)"/>
<path d="M604.302 1239.09L730.478 1199.96C733.003 1199.18 735.675 1200.65 736.366 1203.2C737.062 1205.75 735.5 1208.37 732.924 1208.97L604.299 1239.1L604.302 1239.09Z" fill="url(#paint50_linear_1525_6734)"/>
<path d="M552.225 459.093L678.401 419.965C680.925 419.184 683.598 420.651 684.289 423.2C684.985 425.751 683.423 428.369 680.847 428.975L552.222 459.098L552.225 459.093Z" fill="url(#paint51_linear_1525_6734)"/>
<path d="M715.889 1027.61L842.065 988.486C844.589 987.705 847.262 989.172 847.953 991.721C848.649 994.273 847.087 996.89 844.511 997.496L715.886 1027.62L715.889 1027.61Z" fill="url(#paint52_linear_1525_6734)"/>
<path d="M456.783 892.371L583.099 853.692C585.626 852.918 588.293 854.395 588.977 856.946C589.66 859.497 588.093 862.112 585.513 862.703L456.781 892.363L456.783 892.371Z" fill="url(#paint53_linear_1525_6734)"/>
<path d="M1095.01 1165.93L1221.33 1127.25C1223.85 1126.48 1226.52 1127.96 1227.2 1130.51C1227.89 1133.06 1226.32 1135.67 1223.74 1136.26L1095.01 1165.93Z" fill="url(#paint54_linear_1525_6734)"/>
<path d="M868.096 732.633L994.412 693.954C996.939 693.18 999.606 694.657 1000.29 697.208C1000.97 699.759 999.407 702.374 996.827 702.964L868.094 732.625L868.096 732.633Z" fill="url(#paint55_linear_1525_6734)"/>
</g>
<g filter="url(#filter0_d_1525_6734)">
<path d="M898.5 621.068C969.469 621.068 1027 563.569 1027 492.64C1027 421.711 969.469 364.212 898.5 364.212C827.531 364.212 770 421.711 770 492.64C770 563.569 827.531 621.068 898.5 621.068Z" fill="#33CCFF"/>
<path d="M1002.58 437.237C1002.58 451.298 987.234 438.51 968.044 450.026C948.861 461.517 961.658 480.692 964.202 492.192C966.771 503.708 969.316 490.919 974.43 487.078C979.544 483.261 978.271 494.761 966.771 503.708C955.247 512.663 959.089 502.411 957.816 520.314C956.544 538.216 959.089 530.533 970.612 529.269C982.112 527.996 966.771 554.829 964.202 562.504C961.658 570.163 970.613 568.89 968.044 575.268C965.475 581.679 957.816 572.723 948.861 565.049C939.906 557.39 939.906 559.935 915.61 563.776C891.313 567.618 892.61 558.663 901.541 549.716C910.496 540.761 913.065 526.7 913.065 526.7C923.292 525.427 936.065 507.525 932.247 499.867C928.406 492.184 925.837 480.692 930.951 467.904C936.065 455.139 928.406 446.184 930.951 443.615C933.52 441.07 927.134 429.579 929.679 421.896C932.247 414.237 933.52 409.108 915.61 407.835C897.724 406.563 897.724 402.721 878.533 388.661C869.858 382.322 859.086 377.257 849.923 373.655C864.912 367.509 881.294 364.14 898.5 364.14C937.361 364.14 972.197 381.386 995.789 408.611C997.11 418.199 1002.58 428.442 1002.58 437.229V437.237Z" fill="#05BAD8"/>
<path d="M828.66 456.412C828.66 456.412 841.448 457.692 852.956 448.745C858.67 444.304 859.35 446.192 863.184 441.078C867.017 435.965 864.464 409.124 874.692 420.631C884.919 432.131 875.972 435.973 884.919 435.973C893.866 435.973 902.165 432.508 900.268 437.253C892.594 456.428 895.155 467.928 896.435 478.155C888.76 489.655 886.208 494.769 888.761 504.996C891.321 515.224 884.927 533.118 879.805 529.285C874.692 525.451 874.692 520.338 873.411 515.224C872.131 510.11 860.623 507.557 860.623 498.61C860.623 489.663 855.509 475.602 849.115 480.716C842.721 485.83 849.115 487.11 840.16 492.216C831.205 497.33 824.811 502.443 824.811 492.216C824.811 481.988 814.583 481.988 814.583 474.322C814.583 466.655 813.303 464.094 818.416 462.822C823.53 461.541 828.644 456.428 828.644 456.428L828.66 456.412Z" fill="#05BAD8"/>
<path d="M911.248 620.332C910.52 620.452 909.784 620.588 909.055 620.708C905.566 620.988 902.053 621.132 898.5 621.132C868.449 621.132 840.848 610.864 818.953 593.619C822.866 593.643 826.635 592.794 829.932 590.602C845.274 580.382 842.729 573.996 856.773 573.996C865.728 573.996 869.57 573.996 869.57 590.602C869.57 597.5 876.828 593.002 882.366 599.557C895.891 615.554 876.26 612.609 911.24 620.332H911.248Z" fill="#05BAD8"/>
<path style="mix-blend-mode:multiply" d="M898.5 621.14C969.469 621.14 1027 563.609 1027 492.64C1027 421.672 969.469 364.14 898.5 364.14C827.531 364.14 770 421.672 770 492.64C770 563.609 827.531 621.14 898.5 621.14Z" fill="url(#paint56_radial_1525_6734)"/>
<path style="mix-blend-mode:screen" d="M898.5 621.14C969.469 621.14 1027 563.609 1027 492.64C1027 421.672 969.469 364.14 898.5 364.14C827.531 364.14 770 421.672 770 492.64C770 563.609 827.531 621.14 898.5 621.14Z" fill="url(#paint57_radial_1525_6734)"/>
</g>
<g filter="url(#filter1_d_1525_6734)">
<path d="M873.67 576.696C877.7 616.799 848.442 652.597 808.303 656.634C802.385 657.232 796.561 657.082 790.917 656.297C758.333 651.781 731.804 625.488 728.371 591.304C724.933 557.087 745.701 526.036 776.734 515.166C782.109 513.272 787.784 511.97 793.702 511.373C833.841 507.336 869.634 536.563 873.67 576.703V576.696Z" fill="url(#paint58_linear_1525_6734)"/>
<path d="M795.371 538.127C804.719 534.623 810.869 527.972 809.107 523.272C807.345 518.572 798.339 517.603 788.99 521.108C779.642 524.612 773.492 531.263 775.254 535.963C777.016 540.663 786.023 541.632 795.371 538.127Z" fill="#FFBD2E"/>
<path d="M754.559 617.571C751.133 619.172 745.776 614.949 742.593 608.141C739.41 601.332 739.596 594.511 743.022 592.911C746.448 591.31 751.805 595.533 754.988 602.341C758.178 609.15 757.985 615.97 754.559 617.571Z" fill="#FFBD2E"/>
<path d="M844.088 637.641C840.662 639.242 835.305 635.019 832.122 628.211C828.939 621.402 829.126 614.581 832.552 612.981C835.978 611.38 841.335 615.603 844.518 622.411C847.701 629.22 847.514 636.04 844.088 637.641Z" fill="#FFBD2E"/>
<path d="M791.53 588.408C798.526 587.705 803.439 579.587 802.503 570.277C801.567 560.966 795.137 553.989 788.14 554.692C781.144 555.395 776.231 563.513 777.167 572.824C778.103 582.134 784.533 589.112 791.53 588.408Z" fill="#FFBD2E"/>
<path d="M830.453 544.847C832.527 550.927 830.509 557.119 825.936 558.682C821.371 560.239 815.983 556.577 813.908 550.497C811.834 544.418 813.852 538.226 818.424 536.662C822.99 535.105 828.378 538.768 830.453 544.847Z" fill="#FFBD2E"/>
<path d="M818.051 602.024C818.424 605.73 816.687 608.938 814.176 609.187C811.666 609.442 809.324 606.639 808.95 602.939C808.576 599.239 810.314 596.025 812.825 595.776C815.335 595.521 817.677 598.324 818.051 602.024Z" fill="#FFBD2E"/>
<path d="M842.699 588.681C843.185 593.54 840.911 597.744 837.616 598.074C834.321 598.405 831.256 594.736 830.764 589.877C830.278 585.018 832.552 580.814 835.847 580.484C839.142 580.154 842.207 583.822 842.699 588.681Z" fill="#FFBD2E"/>
<path d="M750.434 555.237C748.634 558.078 745.669 559.423 743.813 558.246C741.957 557.069 741.919 553.811 743.719 550.977C745.52 548.136 748.485 546.791 750.341 547.968C752.197 549.145 752.234 552.403 750.434 555.237Z" fill="#FFBD2E"/>
<path d="M857.319 564.983C860.464 563.411 860.648 557.402 857.73 551.561C854.811 545.72 849.896 542.259 846.75 543.831C843.605 545.402 843.422 551.411 846.34 557.252C849.259 563.093 854.174 566.554 857.319 564.983Z" fill="#FFBD2E"/>
<path d="M773.794 623.645C774.055 626.242 772.921 628.485 771.258 628.647C769.595 628.815 768.038 626.847 767.776 624.249C767.515 621.652 768.648 619.409 770.312 619.247C771.975 619.079 773.532 621.047 773.794 623.645Z" fill="#FFBD2E"/>
<path d="M789.453 605.088C789.914 609.661 787.915 613.604 784.993 613.896C782.072 614.189 779.325 610.719 778.864 606.154C778.403 601.581 780.402 597.639 783.324 597.346C786.245 597.053 788.992 600.523 789.453 605.088Z" fill="#FFBD2E"/>
<path d="M796.847 637.187C797.258 641.298 795.464 644.842 792.836 645.11C790.207 645.372 787.74 642.257 787.329 638.146C786.918 634.035 788.712 630.49 791.341 630.222C793.969 629.961 796.436 633.075 796.847 637.187Z" fill="#FFBD2E"/>
<path d="M761.423 578.372C761.797 582.097 760.171 585.317 757.785 585.554C755.399 585.791 753.163 582.969 752.789 579.238C752.416 575.513 754.041 572.292 756.427 572.056C758.813 571.819 761.049 574.641 761.423 578.372Z" fill="#FFBD2E"/>
<path d="M815.328 645.683C812.6 647.078 809.772 646.997 809.012 645.509C808.252 644.02 809.847 641.684 812.569 640.289C815.297 638.893 818.125 638.974 818.885 640.463C819.645 641.952 818.05 644.288 815.322 645.683H815.328Z" fill="#FFBD2E"/>
<path d="M862.9 596.449C861.947 599.806 859.848 602.148 858.222 601.687C856.596 601.226 856.048 598.124 857.007 594.773C857.96 591.416 860.06 589.073 861.685 589.534C863.311 589.995 863.859 593.097 862.9 596.449Z" fill="#FFBD2E"/>
<path style="mix-blend-mode:screen" d="M873.67 576.696C877.7 616.799 848.442 652.597 808.303 656.634C802.385 657.232 796.561 657.082 790.917 656.297C758.333 651.781 731.804 625.488 728.371 591.304C724.933 557.087 745.701 526.036 776.734 515.166C782.109 513.272 787.784 511.97 793.702 511.373C833.841 507.336 869.634 536.563 873.67 576.703V576.696Z" fill="url(#paint59_radial_1525_6734)"/>
</g>
<path d="M666.832 759.383L528.306 692.664C505.361 681.611 501.186 650.696 520.387 633.959L562.536 597.216C581.733 580.475 611.793 588.821 619.618 613.062L666.839 759.391L666.832 759.383Z" fill="url(#paint60_linear_1525_6734)"/>
<g style="mix-blend-mode:multiply">
<path d="M642.572 731.294L546.498 685.021C530.583 677.355 527.687 655.913 541.007 644.304L570.241 618.817C583.553 607.207 604.403 612.997 609.825 629.806L642.576 731.29L642.572 731.294Z" fill="white"/>
<path d="M642.123 730.777L546.049 684.504C530.134 676.839 527.238 655.397 540.558 643.788L569.792 618.301C583.104 606.691 603.954 612.48 609.376 629.29L642.127 730.773L642.123 730.777Z" fill="#FFFEFC"/>
<path d="M641.673 730.26L545.599 683.988C529.685 676.322 526.789 654.88 540.109 643.271L569.342 617.784C582.655 606.174 603.505 611.963 608.927 628.773L641.678 730.257L641.673 730.26Z" fill="#FEFDF9"/>
<path d="M641.221 729.739L545.147 683.467C529.232 675.801 526.336 654.359 539.656 642.75L568.89 617.263C582.202 605.653 603.052 611.442 608.474 628.252L641.225 729.736L641.221 729.739Z" fill="#FEFCF6"/>
<path d="M640.768 729.226L544.694 682.954C528.779 675.288 525.883 653.846 539.203 642.237L568.437 616.75C581.749 605.14 602.599 610.929 608.021 627.739L640.772 729.223L640.768 729.226Z" fill="#FEFBF3"/>
<path d="M640.315 728.706L544.241 682.433C528.326 674.767 525.43 653.325 538.751 641.716L567.984 616.229C581.296 604.619 602.147 610.409 607.568 627.218L640.319 728.702L640.315 728.706Z" fill="#FDFAF0"/>
<path d="M639.865 728.189L543.791 681.916C527.877 674.25 524.981 652.809 538.301 641.199L567.534 615.712C580.847 604.103 601.697 609.892 607.119 626.702L639.87 728.185L639.865 728.189Z" fill="#FDF9ED"/>
<path d="M639.416 727.672L543.342 681.399C527.428 673.734 524.531 652.292 537.852 640.683L567.085 615.196C580.397 603.586 601.248 609.375 606.669 626.185L639.42 727.668L639.416 727.672Z" fill="#FDF8EA"/>
<path d="M638.963 727.151L542.889 680.879C526.975 673.213 524.079 651.771 537.399 640.162L566.633 614.675C579.945 603.065 600.795 608.854 606.217 625.664L638.968 727.148L638.963 727.151Z" fill="#FCF7E7"/>
<path d="M638.514 726.635L542.44 680.362C526.526 672.696 523.63 651.254 536.95 639.645L566.183 614.158C579.496 602.548 600.346 608.338 605.768 625.147L638.519 726.631L638.514 726.635Z" fill="#FCF6E4"/>
<path d="M638.061 726.122L541.987 679.849C526.073 672.183 523.176 650.741 536.497 639.132L565.73 613.645C579.042 602.035 599.893 607.825 605.314 624.634L638.065 726.118L638.061 726.122Z" fill="#FBF5E1"/>
<path d="M637.609 725.601L541.535 679.328C525.62 671.662 522.724 650.221 536.044 638.611L565.278 613.124C578.59 601.515 599.44 607.304 604.862 624.114L637.613 725.597L637.609 725.601Z" fill="#FBF4DE"/>
<path d="M637.159 725.084L541.085 678.811C525.17 671.146 522.274 649.704 535.594 638.095L564.828 612.608C578.14 600.998 598.99 606.787 604.412 623.597L637.163 725.08L637.159 725.084Z" fill="#FBF3DB"/>
<path d="M636.71 724.567L540.636 678.295C524.721 670.629 521.825 649.187 535.145 637.578L564.379 612.091C577.691 600.481 598.541 606.27 603.963 623.08L636.714 724.564L636.71 724.567Z" fill="#FAF2D8"/>
<path d="M636.257 724.046L540.183 677.774C524.268 670.108 521.372 648.666 534.692 637.057L563.926 611.57C577.238 599.96 598.089 605.749 603.51 622.559L636.261 724.043L636.257 724.046Z" fill="#FAF1D5"/>
<path d="M635.804 723.533L539.73 677.261C523.815 669.595 520.919 648.153 534.239 636.544L563.473 611.057C576.785 599.447 597.635 605.236 603.057 622.046L635.808 723.53L635.804 723.533Z" fill="#FAF0D2"/>
<path d="M635.351 723.013L539.277 676.74C523.363 669.074 520.466 647.632 533.787 636.023L563.02 610.536C576.332 598.926 597.183 604.716 602.604 621.525L635.355 723.009L635.351 723.013Z" fill="#F9EFCF"/>
<path d="M634.902 722.496L538.828 676.223C522.913 668.557 520.017 647.116 533.338 635.506L562.571 610.019C575.883 598.41 596.734 604.199 602.155 621.009L634.906 722.492L634.902 722.496Z" fill="#F9EECC"/>
<path d="M634.452 721.979L538.378 675.706C522.464 668.041 519.568 646.599 532.888 634.99L562.121 609.503C575.434 597.893 596.284 603.682 601.706 620.492L634.457 721.975L634.452 721.979Z" fill="#F9EDC9"/>
<path d="M634 721.458L537.926 675.185C522.011 667.52 519.115 646.078 532.435 634.469L561.669 608.982C574.981 597.372 595.831 603.161 601.253 619.971L634.004 721.454L634 721.458Z" fill="#F8ECC6"/>
<path d="M633.55 720.942L537.476 674.669C521.562 667.003 518.666 645.561 531.986 633.952L561.219 608.465C574.532 596.855 595.382 602.645 600.804 619.454L633.555 720.938L633.55 720.942Z" fill="#F8EBC3"/>
<path d="M633.097 720.429L537.023 674.156C521.109 666.49 518.213 645.048 531.533 633.439L560.766 607.952C574.079 596.342 594.929 602.132 600.351 618.941L633.102 720.425L633.097 720.429Z" fill="#F8EAC0"/>
<path d="M632.645 719.908L536.571 673.635C520.656 665.969 517.76 644.528 531.08 632.918L560.314 607.431C573.626 595.822 594.476 601.611 599.898 618.421L632.649 719.904L632.645 719.908Z" fill="#F7E9BD"/>
<path d="M632.195 719.391L536.121 673.118C520.207 665.453 517.311 644.011 530.631 632.402L559.864 606.915C573.177 595.305 594.027 601.094 599.449 617.904L632.2 719.387L632.195 719.391Z" fill="#F7E8BA"/>
<path d="M631.742 718.87L535.668 672.597C519.754 664.932 516.858 643.49 530.178 631.881L559.411 606.394C572.724 594.784 593.574 600.573 598.996 617.383L631.747 718.866L631.742 718.87Z" fill="#F6E7B7"/>
<path d="M631.293 718.354L535.219 672.081C519.304 664.415 516.408 642.973 529.729 631.364L558.962 605.877C572.274 594.267 593.125 600.057 598.546 616.866L631.297 718.35L631.293 718.354Z" fill="#F6E6B4"/>
<path d="M630.84 717.84L534.766 671.568C518.851 663.902 515.955 642.46 529.276 630.851L558.509 605.364C571.821 593.754 592.672 599.543 598.093 616.353L630.844 717.837L630.84 717.84Z" fill="#F6E5B1"/>
<path d="M630.387 717.32L534.313 671.047C518.398 663.381 515.502 641.939 528.822 630.33L558.056 604.843C571.368 593.233 592.218 599.023 597.64 615.832L630.391 717.316L630.387 717.32Z" fill="#F5E4AE"/>
<path d="M629.938 716.803L533.864 670.53C517.949 662.864 515.053 641.423 528.374 629.813L557.607 604.326C570.919 592.717 591.77 598.506 597.191 615.316L629.942 716.799L629.938 716.803Z" fill="#F5E3AB"/>
<path d="M629.489 716.286L533.415 670.013C517.5 662.348 514.604 640.906 527.924 629.297L557.158 603.81C570.47 592.2 591.32 597.989 596.742 614.799L629.493 716.282L629.489 716.286Z" fill="#F5E2A8"/>
<path d="M629.036 715.765L532.962 669.493C517.047 661.827 514.151 640.385 527.471 628.776L556.705 603.289C570.017 591.679 590.867 597.468 596.289 614.278L629.04 715.762L629.036 715.765Z" fill="#F4E1A5"/>
<path d="M628.587 715.249L532.513 668.976C516.598 661.31 513.702 639.868 527.022 628.259L556.256 602.772C569.568 591.162 590.418 596.952 595.84 613.761L628.591 715.245L628.587 715.249Z" fill="#F4E0A2"/>
</g>
<path d="M628.546 715.202L532.472 668.929C516.557 661.263 513.661 639.822 526.982 628.212L556.215 602.725C569.527 591.116 590.378 596.905 595.799 613.715L628.55 715.198L628.546 715.202Z" fill="#FEECAC"/>
<path d="M476.405 450.676C476.405 450.676 586.364 406.495 646.963 537.746C646.963 537.746 586.276 477.774 524.248 518.83L476.405 450.676Z" fill="#BD0065"/>
<path d="M476.405 450.676C476.405 450.676 586.364 406.495 646.963 537.746C646.963 537.746 586.276 477.774 524.248 518.83L476.405 450.676Z" fill="url(#paint61_linear_1525_6734)" fill-opacity="0.2"/>
<path d="M386.957 528.664C386.957 528.664 328.198 631.581 449.968 709.5C449.968 709.5 398.822 641.212 447.953 585.354L386.956 528.672L386.957 528.664Z" fill="#BD0065"/>
<path d="M386.957 528.664C386.957 528.664 328.198 631.581 449.968 709.5C449.968 709.5 398.822 641.212 447.953 585.354L386.956 528.672L386.957 528.664Z" fill="url(#paint62_linear_1525_6734)" fill-opacity="0.2"/>
<path d="M559.109 570.291L606.064 585.413L503.078 675.207L494.492 626.626L559.109 570.291Z" fill="#0A2233"/>
<path d="M559.109 570.291L606.064 585.413L503.078 675.207L494.492 626.626L559.109 570.291Z" fill="url(#paint63_linear_1525_6734)" fill-opacity="0.2"/>
<path d="M573.795 568.807C542.786 449.399 470.241 366.195 382.129 296.569C299.477 231.267 201.803 225.989 201.803 225.989C201.803 225.989 193.72 323.47 247.159 414.249C304.129 511.029 376.666 594.232 490.736 641.226L573.795 568.807Z" fill="#BCCBD6"/>
<path d="M573.795 568.807C542.786 449.399 470.241 366.195 382.129 296.569C299.477 231.267 201.803 225.989 201.803 225.989C201.803 225.989 193.72 323.47 247.159 414.249C304.129 511.029 376.666 594.232 490.736 641.226L573.795 568.807Z" fill="url(#paint64_linear_1525_6734)" fill-opacity="0.2"/>
<path d="M437.227 496.038C437.227 496.038 451.321 564.037 577.799 657.272C502.669 519.266 437.227 496.038 437.227 496.038Z" fill="#BD0065"/>
<path d="M437.227 496.038C437.227 496.038 451.321 564.037 577.799 657.272C502.669 519.266 437.227 496.038 437.227 496.038Z" fill="url(#paint65_linear_1525_6734)" fill-opacity="0.2"/>
<path d="M343.521 388.559C360.6 373.668 386.511 375.439 401.406 392.523C416.29 409.593 414.519 435.505 397.435 450.4C380.365 465.284 354.453 463.512 339.569 446.442C324.678 429.363 326.45 403.451 343.52 388.567L343.521 388.559Z" fill="#3DB0F7"/>
<path d="M399.93 453.261C381.301 469.5 352.939 467.557 336.699 448.936C320.457 430.303 322.396 401.937 341.017 385.697C359.65 369.455 388.021 371.398 404.267 390.028C420.506 408.657 418.559 437.022 399.929 453.269L399.93 453.261ZM346.019 391.425C330.55 404.909 328.943 428.466 342.435 443.935C355.916 459.399 379.472 461.015 394.937 447.526C410.41 434.038 412.025 410.482 398.541 395.013C385.053 379.54 361.492 377.929 346.019 391.417L346.019 391.425Z" fill="#0A2233"/>
<path d="M399.93 453.261C381.301 469.5 352.939 467.557 336.699 448.936C320.457 430.303 322.396 401.937 341.017 385.697C359.65 369.455 388.021 371.398 404.267 390.028C420.506 408.657 418.559 437.022 399.929 453.269L399.93 453.261ZM346.019 391.425C330.55 404.909 328.943 428.466 342.435 443.935C355.916 459.399 379.472 461.015 394.937 447.526C410.41 434.038 412.025 410.482 398.541 395.013C385.053 379.54 361.492 377.929 346.019 391.417L346.019 391.425Z" fill="url(#paint66_linear_1525_6734)" fill-opacity="0.2"/>
<path d="M382.128 296.577C299.476 231.267 201.803 225.989 201.803 225.989C201.803 225.989 193.719 323.47 247.158 414.249C255.308 397.029 271.702 368.077 302.258 341.403C332.92 314.636 363.941 302.304 382.128 296.569L382.128 296.577Z" fill="#BD0065"/>
<path d="M382.128 296.577C299.476 231.267 201.803 225.989 201.803 225.989C201.803 225.989 193.719 323.47 247.158 414.249C255.308 397.029 271.702 368.077 302.258 341.403C332.92 314.636 363.941 302.304 382.128 296.569L382.128 296.577Z" fill="url(#paint67_linear_1525_6734)" fill-opacity="0.2"/>
<path d="M247.809 415.273C262.312 387.095 282.467 361.523 306.647 341.096C329.338 321.881 355.033 307.191 383.117 297.396L372.931 289.706C346.235 299.898 321.603 314.406 299.763 332.979C276.476 352.81 256.448 377.237 241.623 404.285L247.813 415.269L247.809 415.273Z" fill="#0A2233"/>
<path d="M247.809 415.273C262.312 387.095 282.467 361.523 306.647 341.096C329.338 321.881 355.033 307.191 383.117 297.396L372.931 289.706C346.235 299.898 321.603 314.406 299.763 332.979C276.476 352.81 256.448 377.237 241.623 404.285L247.813 415.269L247.809 415.273Z" fill="url(#paint68_linear_1525_6734)" fill-opacity="0.2"/>
</g>
<defs>
<filter id="filter0_d_1525_6734" x="736.308" y="362.46" width="292.372" height="292.372" filterUnits="userSpaceOnUse" color-interpolation-filters="sRGB">
<feFlood flood-opacity="0" result="BackgroundImageFix"/>
<feColorMatrix in="SourceAlpha" type="matrix" values="0 0 0 0 0 0 0 0 0 0 0 0 0 0 0 0 0 0 127 0" result="hardAlpha"/>
<feOffset dx="-16.0055" dy="16.0055"/>
<feGaussianBlur stdDeviation="8.84302"/>
<feComposite in2="hardAlpha" operator="out"/>
<feColorMatrix type="matrix" values="0 0 0 0 0 0 0 0 0 0 0 0 0 0 0 0 0 0 0.25 0"/>
<feBlend mode="normal" in2="BackgroundImageFix" result="effect1_dropShadow_1525_6734"/>
<feBlend mode="normal" in="SourceGraphic" in2="effect1_dropShadow_1525_6734" result="shape"/>
</filter>
<filter id="filter1_d_1525_6734" x="726.692" y="484.776" width="173.573" height="173.532" filterUnits="userSpaceOnUse" color-interpolation-filters="sRGB">
<feFlood flood-opacity="0" result="BackgroundImageFix"/>
<feColorMatrix in="SourceAlpha" type="matrix" values="0 0 0 0 0 0 0 0 0 0 0 0 0 0 0 0 0 0 127 0" result="hardAlpha"/>
<feOffset dx="12.4581" dy="-12.4581"/>
<feGaussianBlur stdDeviation="6.88309"/>
<feComposite in2="hardAlpha" operator="out"/>
<feColorMatrix type="matrix" values="0 0 0 0 0 0 0 0 0 0 0 0 0 0 0 0 0 0 0.25 0"/>
<feBlend mode="normal" in2="BackgroundImageFix" result="effect1_dropShadow_1525_6734"/>
<feBlend mode="normal" in="SourceGraphic" in2="effect1_dropShadow_1525_6734" result="shape"/>
</filter>
<linearGradient id="paint0_linear_1525_6734" x1="0" y1="0" x2="1202" y2="1264" gradientUnits="userSpaceOnUse">
<stop offset="0.385417" stop-color="#0057AD"/>
<stop offset="1" stop-color="#0A2233"/>
</linearGradient>
<radialGradient id="paint1_radial_1525_6734" cx="0" cy="0" r="1" gradientUnits="userSpaceOnUse" gradientTransform="translate(471.525 555.98) rotate(180) scale(7.03 7.03)">
<stop stop-color="#BEBEBE"/>
<stop offset="1" stop-color="white"/>
</radialGradient>
<linearGradient id="paint2_linear_1525_6734" x1="469.854" y1="550.62" x2="483.924" y2="550.62" gradientUnits="userSpaceOnUse">
<stop stop-color="white"/>
<stop offset="0.31" stop-color="#FAFAFA"/>
<stop offset="0.63" stop-color="#EEEEEE"/>
<stop offset="0.95" stop-color="#D9D9D9"/>
<stop offset="1" stop-color="#D6D6D6"/>
</linearGradient>
<radialGradient id="paint3_radial_1525_6734" cx="0" cy="0" r="1" gradientUnits="userSpaceOnUse" gradientTransform="translate(361.658 991.918) rotate(-180) scale(7.57 7.57001)">
<stop stop-color="#BEBEBE"/>
<stop offset="1" stop-color="white"/>
</radialGradient>
<linearGradient id="paint4_linear_1525_6734" x1="359.854" y1="986.31" x2="375.004" y2="986.31" gradientUnits="userSpaceOnUse">
<stop stop-color="white"/>
<stop offset="0.31" stop-color="#FAFAFA"/>
<stop offset="0.63" stop-color="#EEEEEE"/>
<stop offset="0.95" stop-color="#D9D9D9"/>
<stop offset="1" stop-color="#D6D6D6"/>
</linearGradient>
<radialGradient id="paint5_radial_1525_6734" cx="0" cy="0" r="1" gradientUnits="userSpaceOnUse" gradientTransform="translate(705.865 915.71) rotate(180) scale(7.57001)">
<stop stop-color="#BEBEBE"/>
<stop offset="1" stop-color="white"/>
</radialGradient>
<linearGradient id="paint6_linear_1525_6734" x1="704.065" y1="909.94" x2="719.205" y2="909.94" gradientUnits="userSpaceOnUse">
<stop stop-color="white"/>
<stop offset="0.31" stop-color="#FAFAFA"/>
<stop offset="0.63" stop-color="#EEEEEE"/>
<stop offset="0.95" stop-color="#D9D9D9"/>
<stop offset="1" stop-color="#D6D6D6"/>
</linearGradient>
<radialGradient id="paint7_radial_1525_6734" cx="0" cy="0" r="1" gradientUnits="userSpaceOnUse" gradientTransform="translate(572.215 526.57) rotate(180) scale(5.42)">
<stop stop-color="#BEBEBE"/>
<stop offset="1" stop-color="white"/>
</radialGradient>
<linearGradient id="paint8_linear_1525_6734" x1="570.925" y1="522.44" x2="581.765" y2="522.44" gradientUnits="userSpaceOnUse">
<stop stop-color="white"/>
<stop offset="0.31" stop-color="#FAFAFA"/>
<stop offset="0.63" stop-color="#EEEEEE"/>
<stop offset="0.95" stop-color="#D9D9D9"/>
<stop offset="1" stop-color="#D6D6D6"/>
</linearGradient>
<radialGradient id="paint9_radial_1525_6734" cx="0" cy="0" r="1" gradientUnits="userSpaceOnUse" gradientTransform="translate(1205.19 426.28) rotate(180) scale(5.42001 5.42)">
<stop stop-color="#BEBEBE"/>
<stop offset="1" stop-color="white"/>
</radialGradient>
<radialGradient id="paint10_radial_1525_6734" cx="0" cy="0" r="1" gradientUnits="userSpaceOnUse" gradientTransform="translate(747.975 370.79) rotate(180) scale(5.28999 5.29)">
<stop stop-color="#BEBEBE"/>
<stop offset="1" stop-color="white"/>
</radialGradient>
<linearGradient id="paint11_linear_1525_6734" x1="746.715" y1="366.76" x2="757.295" y2="366.76" gradientUnits="userSpaceOnUse">
<stop stop-color="white"/>
<stop offset="0.31" stop-color="#FAFAFA"/>
<stop offset="0.63" stop-color="#EEEEEE"/>
<stop offset="0.95" stop-color="#D9D9D9"/>
<stop offset="1" stop-color="#D6D6D6"/>
</linearGradient>
<radialGradient id="paint12_radial_1525_6734" cx="0" cy="0" r="1" gradientUnits="userSpaceOnUse" gradientTransform="translate(753.045 626.44) rotate(180) scale(4.07999 4.08)">
<stop stop-color="#BEBEBE"/>
<stop offset="1" stop-color="white"/>
</radialGradient>
<linearGradient id="paint13_linear_1525_6734" x1="752.074" y1="623.33" x2="760.234" y2="623.33" gradientUnits="userSpaceOnUse">
<stop stop-color="white"/>
<stop offset="0.31" stop-color="#FAFAFA"/>
<stop offset="0.63" stop-color="#EEEEEE"/>
<stop offset="0.95" stop-color="#D9D9D9"/>
<stop offset="1" stop-color="#D6D6D6"/>
</linearGradient>
<radialGradient id="paint14_radial_1525_6734" cx="0" cy="0" r="1" gradientUnits="userSpaceOnUse" gradientTransform="translate(616.384 778.6) rotate(180) scale(4.08 4.07999)">
<stop stop-color="#BEBEBE"/>
<stop offset="1" stop-color="white"/>
</radialGradient>
<linearGradient id="paint15_linear_1525_6734" x1="615.414" y1="775.49" x2="623.574" y2="775.49" gradientUnits="userSpaceOnUse">
<stop stop-color="white"/>
<stop offset="0.31" stop-color="#FAFAFA"/>
<stop offset="0.63" stop-color="#EEEEEE"/>
<stop offset="0.95" stop-color="#D9D9D9"/>
<stop offset="1" stop-color="#D6D6D6"/>
</linearGradient>
<radialGradient id="paint16_radial_1525_6734" cx="0" cy="0" r="1" gradientUnits="userSpaceOnUse" gradientTransform="translate(750.055 1248.23) rotate(180) scale(7.22 7.21997)">
<stop stop-color="#BEBEBE"/>
<stop offset="1" stop-color="white"/>
</radialGradient>
<linearGradient id="paint17_linear_1525_6734" x1="748.345" y1="1242.73" x2="762.775" y2="1242.73" gradientUnits="userSpaceOnUse">
<stop stop-color="white"/>
<stop offset="0.31" stop-color="#FAFAFA"/>
<stop offset="0.63" stop-color="#EEEEEE"/>
<stop offset="0.95" stop-color="#D9D9D9"/>
<stop offset="1" stop-color="#D6D6D6"/>
</linearGradient>
<radialGradient id="paint18_radial_1525_6734" cx="0" cy="0" r="1" gradientUnits="userSpaceOnUse" gradientTransform="translate(603.525 1142.37) rotate(180) scale(7.03001 7.03)">
<stop stop-color="#BEBEBE"/>
<stop offset="1" stop-color="white"/>
</radialGradient>
<linearGradient id="paint19_linear_1525_6734" x1="601.854" y1="1137.01" x2="615.924" y2="1137.01" gradientUnits="userSpaceOnUse">
<stop stop-color="white"/>
<stop offset="0.31" stop-color="#FAFAFA"/>
<stop offset="0.63" stop-color="#EEEEEE"/>
<stop offset="0.95" stop-color="#D9D9D9"/>
<stop offset="1" stop-color="#D6D6D6"/>
</linearGradient>
<radialGradient id="paint20_radial_1525_6734" cx="0" cy="0" r="1" gradientUnits="userSpaceOnUse" gradientTransform="translate(423.525 1202.37) rotate(180) scale(7.03 7.03)">
<stop stop-color="#BEBEBE"/>
<stop offset="1" stop-color="white"/>
</radialGradient>
<linearGradient id="paint21_linear_1525_6734" x1="421.854" y1="1197.01" x2="435.924" y2="1197.01" gradientUnits="userSpaceOnUse">
<stop stop-color="white"/>
<stop offset="0.31" stop-color="#FAFAFA"/>
<stop offset="0.63" stop-color="#EEEEEE"/>
<stop offset="0.95" stop-color="#D9D9D9"/>
<stop offset="1" stop-color="#D6D6D6"/>
</linearGradient>
<radialGradient id="paint22_radial_1525_6734" cx="0" cy="0" r="1" gradientUnits="userSpaceOnUse" gradientTransform="translate(1043.66 791.86) rotate(180) scale(7.03)">
<stop stop-color="#BEBEBE"/>
<stop offset="1" stop-color="white"/>
</radialGradient>
<linearGradient id="paint23_linear_1525_6734" x1="1041.99" y1="786.5" x2="1056.06" y2="786.5" gradientUnits="userSpaceOnUse">
<stop stop-color="white"/>
<stop offset="0.31" stop-color="#FAFAFA"/>
<stop offset="0.63" stop-color="#EEEEEE"/>
<stop offset="0.95" stop-color="#D9D9D9"/>
<stop offset="1" stop-color="#D6D6D6"/>
</linearGradient>
<radialGradient id="paint24_radial_1525_6734" cx="0" cy="0" r="1" gradientUnits="userSpaceOnUse" gradientTransform="translate(1207.33 832.21) rotate(180) scale(6.33002 6.32999)">
<stop stop-color="#BEBEBE"/>
<stop offset="1" stop-color="white"/>
</radialGradient>
<radialGradient id="paint25_radial_1525_6734" cx="0" cy="0" r="1" gradientUnits="userSpaceOnUse" gradientTransform="translate(999.92 974.831) rotate(-180) scale(7.56998 7.57001)">
<stop stop-color="#BEBEBE"/>
<stop offset="1" stop-color="white"/>
</radialGradient>
<linearGradient id="paint26_linear_1525_6734" x1="998.115" y1="969.23" x2="1013.27" y2="969.23" gradientUnits="userSpaceOnUse">
<stop stop-color="white"/>
<stop offset="0.31" stop-color="#FAFAFA"/>
<stop offset="0.63" stop-color="#EEEEEE"/>
<stop offset="0.95" stop-color="#D9D9D9"/>
<stop offset="1" stop-color="#D6D6D6"/>
</linearGradient>
<radialGradient id="paint27_radial_1525_6734" cx="0" cy="0" r="1" gradientUnits="userSpaceOnUse" gradientTransform="translate(1045.65 1086.47) rotate(180) scale(7.57001 7.56998)">
<stop stop-color="#BEBEBE"/>
<stop offset="1" stop-color="white"/>
</radialGradient>
<linearGradient id="paint28_linear_1525_6734" x1="1043.85" y1="1080.7" x2="1059" y2="1080.7" gradientUnits="userSpaceOnUse">
<stop stop-color="white"/>
<stop offset="0.31" stop-color="#FAFAFA"/>
<stop offset="0.63" stop-color="#EEEEEE"/>
<stop offset="0.95" stop-color="#D9D9D9"/>
<stop offset="1" stop-color="#D6D6D6"/>
</linearGradient>
<radialGradient id="paint29_radial_1525_6734" cx="0" cy="0" r="1" gradientUnits="userSpaceOnUse" gradientTransform="translate(945.865 1202.1) rotate(180) scale(7.56998)">
<stop stop-color="#BEBEBE"/>
<stop offset="1" stop-color="white"/>
</radialGradient>
<linearGradient id="paint30_linear_1525_6734" x1="944.064" y1="1196.33" x2="959.204" y2="1196.33" gradientUnits="userSpaceOnUse">
<stop stop-color="white"/>
<stop offset="0.31" stop-color="#FAFAFA"/>
<stop offset="0.63" stop-color="#EEEEEE"/>
<stop offset="0.95" stop-color="#D9D9D9"/>
<stop offset="1" stop-color="#D6D6D6"/>
</linearGradient>
<radialGradient id="paint31_radial_1525_6734" cx="0" cy="0" r="1" gradientUnits="userSpaceOnUse" gradientTransform="translate(388.375 744.48) rotate(180) scale(5.42 5.42001)">
<stop stop-color="#BEBEBE"/>
<stop offset="1" stop-color="white"/>
</radialGradient>
<linearGradient id="paint32_linear_1525_6734" x1="387.085" y1="740.35" x2="397.935" y2="740.35" gradientUnits="userSpaceOnUse">
<stop stop-color="white"/>
<stop offset="0.31" stop-color="#FAFAFA"/>
<stop offset="0.63" stop-color="#EEEEEE"/>
<stop offset="0.95" stop-color="#D9D9D9"/>
<stop offset="1" stop-color="#D6D6D6"/>
</linearGradient>
<radialGradient id="paint33_radial_1525_6734" cx="0" cy="0" r="1" gradientUnits="userSpaceOnUse" gradientTransform="translate(788.215 1004.96) rotate(180) scale(5.42 5.42001)">
<stop stop-color="#BEBEBE"/>
<stop offset="1" stop-color="white"/>
</radialGradient>
<linearGradient id="paint34_linear_1525_6734" x1="786.925" y1="1000.83" x2="797.765" y2="1000.83" gradientUnits="userSpaceOnUse">
<stop stop-color="white"/>
<stop offset="0.31" stop-color="#FAFAFA"/>
<stop offset="0.63" stop-color="#EEEEEE"/>
<stop offset="0.95" stop-color="#D9D9D9"/>
<stop offset="1" stop-color="#D6D6D6"/>
</linearGradient>
<radialGradient id="paint35_radial_1525_6734" cx="0" cy="0" r="1" gradientUnits="userSpaceOnUse" gradientTransform="translate(1205.19 712.67) rotate(180) scale(5.42001 5.42)">
<stop stop-color="#BEBEBE"/>
<stop offset="1" stop-color="white"/>
</radialGradient>
<radialGradient id="paint36_radial_1525_6734" cx="0" cy="0" r="1" gradientUnits="userSpaceOnUse" gradientTransform="translate(915.975 777.18) rotate(180) scale(5.29001 5.28998)">
<stop stop-color="#BEBEBE"/>
<stop offset="1" stop-color="white"/>
</radialGradient>
<linearGradient id="paint37_linear_1525_6734" x1="914.715" y1="773.16" x2="925.295" y2="773.16" gradientUnits="userSpaceOnUse">
<stop stop-color="white"/>
<stop offset="0.31" stop-color="#FAFAFA"/>
<stop offset="0.63" stop-color="#EEEEEE"/>
<stop offset="0.95" stop-color="#D9D9D9"/>
<stop offset="1" stop-color="#D6D6D6"/>
</linearGradient>
<radialGradient id="paint38_radial_1525_6734" cx="0" cy="0" r="1" gradientUnits="userSpaceOnUse" gradientTransform="translate(1125.05 948.83) rotate(180) scale(4.07999)">
<stop stop-color="#BEBEBE"/>
<stop offset="1" stop-color="white"/>
</radialGradient>
<linearGradient id="paint39_linear_1525_6734" x1="1124.08" y1="945.72" x2="1132.24" y2="945.72" gradientUnits="userSpaceOnUse">
<stop stop-color="white"/>
<stop offset="0.31" stop-color="#FAFAFA"/>
<stop offset="0.63" stop-color="#EEEEEE"/>
<stop offset="0.95" stop-color="#D9D9D9"/>
<stop offset="1" stop-color="#D6D6D6"/>
</linearGradient>
<radialGradient id="paint40_radial_1525_6734" cx="0" cy="0" r="1" gradientUnits="userSpaceOnUse" gradientTransform="translate(1142.5 609.49) rotate(180) scale(4.07999 4.08)">
<stop stop-color="#BEBEBE"/>
<stop offset="1" stop-color="white"/>
</radialGradient>
<linearGradient id="paint41_linear_1525_6734" x1="1141.53" y1="606.38" x2="1149.69" y2="606.38" gradientUnits="userSpaceOnUse">
<stop stop-color="white"/>
<stop offset="0.31" stop-color="#FAFAFA"/>
<stop offset="0.63" stop-color="#EEEEEE"/>
<stop offset="0.95" stop-color="#D9D9D9"/>
<stop offset="1" stop-color="#D6D6D6"/>
</linearGradient>
<radialGradient id="paint42_radial_1525_6734" cx="0" cy="0" r="1" gradientUnits="userSpaceOnUse" gradientTransform="translate(1036.38 884.99) rotate(180) scale(4.08002)">
<stop stop-color="#BEBEBE"/>
<stop offset="1" stop-color="white"/>
</radialGradient>
<linearGradient id="paint43_linear_1525_6734" x1="1035.41" y1="881.89" x2="1043.57" y2="881.89" gradientUnits="userSpaceOnUse">
<stop stop-color="white"/>
<stop offset="0.31" stop-color="#FAFAFA"/>
<stop offset="0.63" stop-color="#EEEEEE"/>
<stop offset="0.95" stop-color="#D9D9D9"/>
<stop offset="1" stop-color="#D6D6D6"/>
</linearGradient>
<radialGradient id="paint44_radial_1525_6734" cx="0" cy="0" r="1" gradientUnits="userSpaceOnUse" gradientTransform="translate(954.915 462.25) rotate(180) scale(5.29001 5.28999)">
<stop stop-color="#BEBEBE"/>
<stop offset="1" stop-color="white"/>
</radialGradient>
<linearGradient id="paint45_linear_1525_6734" x1="953.649" y1="458.218" x2="964.229" y2="458.218" gradientUnits="userSpaceOnUse">
<stop stop-color="white"/>
<stop offset="0.31" stop-color="#FAFAFA"/>
<stop offset="0.63" stop-color="#EEEEEE"/>
<stop offset="0.95" stop-color="#D9D9D9"/>
<stop offset="1" stop-color="#D6D6D6"/>
</linearGradient>
<radialGradient id="paint46_radial_1525_6734" cx="0" cy="0" r="1" gradientUnits="userSpaceOnUse" gradientTransform="translate(378.147 1136.59) rotate(-19.7397) scale(299.774 299.774)">
<stop stop-color="#808080"/>
<stop offset="0.15" stop-color="#9C9C9C"/>
<stop offset="0.42" stop-color="#C6C6C6"/>
<stop offset="0.66" stop-color="#E5E5E5"/>
<stop offset="0.86" stop-color="#F8F8F8"/>
<stop offset="1" stop-color="white"/>
</radialGradient>
<radialGradient id="paint47_radial_1525_6734" cx="0" cy="0" r="1" gradientUnits="userSpaceOnUse" gradientTransform="translate(299.267 1243.8) rotate(-13.9997) scale(383.653)">
<stop stop-color="#CE93D8"/>
<stop offset="0.19" stop-color="#CF97D9"/>
<stop offset="0.38" stop-color="#D5A3DD"/>
<stop offset="0.58" stop-color="#DEB7E5"/>
<stop offset="0.77" stop-color="#EBD3EF"/>
<stop offset="0.96" stop-color="#FBF7FC"/>
<stop offset="1" stop-color="white"/>
</radialGradient>
<radialGradient id="paint48_radial_1525_6734" cx="0" cy="0" r="1" gradientUnits="userSpaceOnUse" gradientTransform="translate(458.71 892.024) rotate(-13.9997) scale(213.069)">
<stop stop-color="#CF48E7"/>
<stop offset="0.1" stop-color="#AC3BC0"/>
<stop offset="0.27" stop-color="#782986"/>
<stop offset="0.44" stop-color="#4D1A56"/>
<stop offset="0.59" stop-color="#2B0F30"/>
<stop offset="0.74" stop-color="#130615"/>
<stop offset="0.86" stop-color="#050105"/>
<stop offset="0.96"/>
</radialGradient>
<linearGradient id="paint49_linear_1525_6734" x1="1245.82" y1="525.278" x2="1157.73" y2="474.851" gradientUnits="userSpaceOnUse">
<stop stop-color="#FCC77A"/>
<stop offset="0.53" stop-color="#F9A262"/>
<stop offset="1" stop-color="#F67E4A"/>
</linearGradient>
<linearGradient id="paint50_linear_1525_6734" x1="713.843" y1="1245.27" x2="625.761" y2="1194.84" gradientUnits="userSpaceOnUse">
<stop stop-color="#FCC77A"/>
<stop offset="0.53" stop-color="#F9A262"/>
<stop offset="1" stop-color="#F67E4A"/>
</linearGradient>
<linearGradient id="paint51_linear_1525_6734" x1="661.706" y1="465.358" x2="573.624" y2="414.934" gradientUnits="userSpaceOnUse">
<stop stop-color="#FCC77A"/>
<stop offset="0.53" stop-color="#F9A262"/>
<stop offset="1" stop-color="#F67E4A"/>
</linearGradient>
<linearGradient id="paint52_linear_1525_6734" x1="825.409" y1="1033.86" x2="737.323" y2="983.436" gradientUnits="userSpaceOnUse">
<stop stop-color="#FCC77A"/>
<stop offset="0.53" stop-color="#F9A262"/>
<stop offset="1" stop-color="#F67E4A"/>
</linearGradient>
<linearGradient id="paint53_linear_1525_6734" x1="566.312" y1="898.948" x2="481.317" y2="849.876" gradientUnits="userSpaceOnUse">
<stop stop-color="#C5EBF6"/>
<stop offset="0.44" stop-color="#A0EAF3"/>
<stop offset="1" stop-color="#6BEAF1"/>
</linearGradient>
<linearGradient id="paint54_linear_1525_6734" x1="1204.53" y1="1172.51" x2="1119.54" y2="1123.44" gradientUnits="userSpaceOnUse">
<stop stop-color="#C5EBF6"/>
<stop offset="0.44" stop-color="#A0EAF3"/>
<stop offset="1" stop-color="#6BEAF1"/>
</linearGradient>
<linearGradient id="paint55_linear_1525_6734" x1="977.624" y1="739.202" x2="892.634" y2="690.133" gradientUnits="userSpaceOnUse">
<stop stop-color="#C5EBF6"/>
<stop offset="0.44" stop-color="#A0EAF3"/>
<stop offset="1" stop-color="#6BEAF1"/>
</linearGradient>
<radialGradient id="paint56_radial_1525_6734" cx="0" cy="0" r="1" gradientUnits="userSpaceOnUse" gradientTransform="translate(803.213 607.769) scale(231.806 231.806)">
<stop stop-color="#29A9B3"/>
<stop offset="0.14" stop-color="#2DAAB4"/>
<stop offset="0.27" stop-color="#39AFB8"/>
<stop offset="0.41" stop-color="#4DB7BF"/>
<stop offset="0.55" stop-color="#69C2C9"/>
<stop offset="0.69" stop-color="#8ED1D6"/>
<stop offset="0.82" stop-color="#BAE3E6"/>
<stop offset="0.96" stop-color="#EEF8F9"/>
<stop offset="1" stop-color="white"/>
</radialGradient>
<radialGradient id="paint57_radial_1525_6734" cx="0" cy="0" r="1" gradientUnits="userSpaceOnUse" gradientTransform="translate(948.082 424.849) scale(128.738 128.738)">
<stop stop-color="#6CE6E1"/>
<stop offset="0.1" stop-color="#5AC0BB"/>
<stop offset="0.27" stop-color="#3F8683"/>
<stop offset="0.44" stop-color="#285654"/>
<stop offset="0.59" stop-color="#16302F"/>
<stop offset="0.73" stop-color="#0A1515"/>
<stop offset="0.86" stop-color="#020505"/>
<stop offset="0.96"/>
</radialGradient>
<linearGradient id="paint58_linear_1525_6734" x1="830.723" y1="518.785" x2="771.674" y2="648.326" gradientUnits="userSpaceOnUse">
<stop stop-color="#FFD989"/>
<stop offset="0.07" stop-color="#FFD682"/>
<stop offset="0.46" stop-color="#FFCC5F"/>
<stop offset="0.79" stop-color="#FFC64A"/>
<stop offset="1" stop-color="#FFC443"/>
</linearGradient>
<radialGradient id="paint59_radial_1525_6734" cx="0" cy="0" r="1" gradientUnits="userSpaceOnUse" gradientTransform="translate(821.97 550.478) rotate(-5.74) scale(73.0043 73.0043)">
<stop stop-color="#FFD989"/>
<stop offset="0.13" stop-color="#E1BF79"/>
<stop offset="0.43" stop-color="#957F50"/>
<stop offset="0.86" stop-color="#1D190F"/>
<stop offset="0.96"/>
</radialGradient>
<linearGradient id="paint60_linear_1525_6734" x1="664.021" y1="746.939" x2="549.852" y2="626.624" gradientUnits="userSpaceOnUse">
<stop stop-color="#FCC77A"/>
<stop offset="0.53" stop-color="#F9A262"/>
<stop offset="1" stop-color="#F67E4A"/>
</linearGradient>
<linearGradient id="paint61_linear_1525_6734" x1="610.5" y1="519" x2="526.318" y2="443.703" gradientUnits="userSpaceOnUse">
<stop/>
<stop offset="0.505208" stop-opacity="0"/>
<stop offset="1"/>
</linearGradient>
<linearGradient id="paint62_linear_1525_6734" x1="418" y1="572.5" x2="411.5" y2="678.5" gradientUnits="userSpaceOnUse">
<stop/>
<stop offset="0.505208" stop-opacity="0"/>
<stop offset="1"/>
</linearGradient>
<linearGradient id="paint63_linear_1525_6734" x1="582.881" y1="584.649" x2="515.373" y2="665.544" gradientUnits="userSpaceOnUse">
<stop stop-color="white" stop-opacity="0"/>
<stop offset="0.505208" stop-color="white"/>
<stop offset="1" stop-color="white" stop-opacity="0"/>
</linearGradient>
<linearGradient id="paint64_linear_1525_6734" x1="465.694" y1="411.812" x2="347.328" y2="519.009" gradientUnits="userSpaceOnUse">
<stop stop-color="white" stop-opacity="0"/>
<stop offset="0.505208" stop-color="white"/>
<stop offset="1" stop-color="white" stop-opacity="0"/>
</linearGradient>
<linearGradient id="paint65_linear_1525_6734" x1="518.5" y1="566" x2="495.271" y2="586.412" gradientUnits="userSpaceOnUse">
<stop/>
<stop offset="0.505208" stop-opacity="0"/>
<stop offset="1"/>
</linearGradient>
<linearGradient id="paint66_linear_1525_6734" x1="403.13" y1="405.715" x2="352.712" y2="454.172" gradientUnits="userSpaceOnUse">
<stop stop-color="white" stop-opacity="0"/>
<stop offset="0.505208" stop-color="white"/>
<stop offset="1" stop-color="white" stop-opacity="0"/>
</linearGradient>
<linearGradient id="paint67_linear_1525_6734" x1="323" y1="262.5" x2="222.5" y2="359.5" gradientUnits="userSpaceOnUse">
<stop/>
<stop offset="0.505208" stop-opacity="0"/>
<stop offset="1"/>
</linearGradient>
<linearGradient id="paint68_linear_1525_6734" x1="359.465" y1="304.21" x2="290.232" y2="418.34" gradientUnits="userSpaceOnUse">
<stop stop-color="white" stop-opacity="0"/>
<stop offset="0.505208" stop-color="white"/>
<stop offset="1" stop-color="white" stop-opacity="0"/>
</linearGradient>
<clipPath id="clip0_1525_6734">
<rect width="1202" height="1264" fill="white"/>
</clipPath>
</defs>
</svg>
