<svg width="22" height="24" viewBox="0 0 22 24" fill="none" xmlns="http://www.w3.org/2000/svg"><mask id="mask0" maskUnits="userSpaceOnUse" x="0" y="0" width="22" height="24" style="mask-type: alpha;"><path d="M.848 22.068L.001 2.3c-.028-.653.544-1.206 1.289-1.247L20.496.003c.758-.042 1.41.462 1.458 1.126l.003.075v21.541c0 .665-.616 1.204-1.376 1.204l-.061-.001-18.359-.722c-.715-.028-1.286-.532-1.313-1.158z" fill="#fff"></path></mask><g mask="url(#mask0)"><path d="M.848 22.068L.001 2.3c-.028-.653.544-1.206 1.289-1.247L20.496.003c.758-.042 1.41.462 1.458 1.126l.003.075v21.541c0 .665-.616 1.204-1.376 1.204l-.061-.001-18.359-.722c-.715-.028-1.286-.532-1.313-1.158z" fill="#FF4785"></path><path d="M16.213 2.944L16.345.18 18.982 0l.114 2.849c.004.099-.085.182-.198.185a.225.225 0 0 1-.134-.038l-1.017-.701-1.205.8a.225.225 0 0 1-.287-.035.165.165 0 0 1-.042-.116zM12.84 9.027c0 .468 3.605.244 4.088-.085 0-3.19-1.955-4.867-5.535-4.867S5.806 5.778 5.806 8.331c0 4.448 6.856 4.533 6.856 6.959 0 .68-.38 1.085-1.218 1.085-1.092 0-1.524-.488-1.473-2.148 0-.36-4.165-.472-4.292 0-.323 4.023 2.54 5.183 5.815 5.183 3.175 0 5.663-1.481 5.663-4.163 0-4.766-6.958-4.639-6.958-7 0-.959.813-1.086 1.295-1.086.508 0 1.422.078 1.346 1.866z" fill="#fff"></path></g></svg>