<svg width="24" height="24" viewBox="0 0 24 24" fill="none" xmlns="http://www.w3.org/2000/svg">
<g clip-path="url(#clip0_1526_7600)">
<path d="M19.5 2.19198C18.618 -0.517025 15.5 0.291976 15.5 2.72898C15.5 4.49498 18.17 6.75398 19.191 7.55398C19.2791 7.62324 19.3879 7.66089 19.5 7.66089C19.6121 7.66089 19.7209 7.62324 19.809 7.55398C20.83 6.75398 23.5 4.49998 23.5 2.72898C23.5 0.299976 20.382 -0.517025 19.5 2.19198ZM11.75 11.5C11.8163 11.5 11.8799 11.5263 11.9268 11.5732C11.9737 11.6201 12 11.6837 12 11.75M11.5 11.75C11.5 11.6837 11.5263 11.6201 11.5732 11.5732C11.6201 11.5263 11.6837 11.5 11.75 11.5M11.75 12C11.6837 12 11.6201 11.9736 11.5732 11.9268C11.5263 11.8799 11.5 11.8163 11.5 11.75M12 11.75C12 11.8163 11.9737 11.8799 11.9268 11.9268C11.8799 11.9736 11.8163 12 11.75 12" stroke="#0A2233" stroke-linecap="round" stroke-linejoin="round"/>
<path d="M10.447 8.10702C9.29444 8.25909 8.23816 8.82992 7.47946 9.71072C6.72075 10.5915 6.31266 11.7207 6.33296 12.883V13.917C5.41761 14.0347 4.48737 13.9284 3.62219 13.6072C2.757 13.286 1.98275 12.7595 1.36596 12.073C1.29504 11.9957 1.2016 11.9427 1.09887 11.9214C0.996144 11.9002 0.889335 11.9118 0.793561 11.9546C0.697787 11.9974 0.6179 12.0692 0.565209 12.1599C0.512518 12.2506 0.489691 12.3556 0.499961 12.46C0.823961 15.652 2.21196 18.011 4.86396 19.237C4.56884 19.648 4.23388 20.0288 3.86396 20.374L1.43096 22.634C1.3575 22.7024 1.30631 22.7913 1.28406 22.8892C1.2618 22.987 1.26952 23.0893 1.3062 23.1827C1.34288 23.2762 1.40682 23.3564 1.48971 23.413C1.5726 23.4696 1.6706 23.4999 1.77096 23.5H7.77896C9.8267 23.5 11.7906 22.6866 13.2385 21.2386C14.6865 19.7906 15.5 17.8268 15.5 15.779V12.667C15.4975 12.0262 15.3612 11.393 15.0998 10.808C14.8383 10.2229 14.4575 9.69895 13.9818 9.26964C13.5061 8.84033 12.9459 8.51515 12.3372 8.31494C11.7285 8.11473 11.0846 8.04391 10.447 8.10702Z" stroke="#0A2233" stroke-linecap="round" stroke-linejoin="round"/>
<path d="M15.3279 11.426L18.0769 12.6C18.1624 12.6366 18.2361 12.6964 18.2895 12.7726C18.3429 12.8487 18.3741 12.9383 18.3794 13.0312C18.3847 13.1241 18.3639 13.2167 18.3195 13.2984C18.2751 13.3802 18.2087 13.4479 18.1279 13.494L15.4999 15" stroke="#0A2233" stroke-linecap="round" stroke-linejoin="round"/>
</g>
<defs>
<clipPath id="clip0_1526_7600">
<rect width="24" height="24" fill="white"/>
</clipPath>
</defs>
</svg>
