<svg width="24" height="24" viewBox="0 0 24 24" fill="none" xmlns="http://www.w3.org/2000/svg">
<path d="M20.5 19.5V1.5C20.5 1.23478 20.3946 0.98043 20.2071 0.792893C20.0196 0.605357 19.7652 0.5 19.5 0.5H5.5C4.96957 0.5 4.46086 0.710714 4.08579 1.08579C3.71071 1.46086 3.5 1.96957 3.5 2.5V21.5" stroke="white"/>
<path d="M20.5 19.5H5.5C4.96957 19.5 4.46086 19.7107 4.08579 20.0858C3.71071 20.4608 3.5 20.9696 3.5 21.5C3.5 22.0304 3.71071 22.5391 4.08579 22.9142C4.46086 23.2893 4.96957 23.5 5.5 23.5H20.5M6.5 21.5H20.5M15.36 6.49999C14.3139 5.52249 12.9316 4.98532 11.5 4.99999C8.65 4.99999 6.35 6.99999 6.35 9.33999C6.39784 10.2431 6.72596 11.1089 7.28874 11.8168C7.85151 12.5247 8.62095 13.0397 9.49 13.29C10.23 13.55 10.83 13.34 11.25 12.38C11.331 12.1459 11.4723 11.9372 11.6596 11.775C11.847 11.6129 12.0737 11.503 12.317 11.4563C12.5604 11.4097 12.8117 11.428 13.0457 11.5094C13.2797 11.5908 13.4881 11.7324 13.65 11.92M16.33 10.13L13.64 15.5M15.76 8.39999C15.6676 8.5524 15.6078 8.72232 15.5844 8.899C15.5609 9.07569 15.5743 9.25531 15.6238 9.42655C15.6732 9.59779 15.7576 9.75693 15.8716 9.89392C15.9857 10.0309 16.1268 10.1428 16.2862 10.2225C16.4457 10.3022 16.6199 10.348 16.7979 10.357C16.9759 10.3661 17.1538 10.3381 17.3205 10.2749C17.4871 10.2117 17.6389 10.1147 17.7662 9.98991C17.8935 9.86514 17.9935 9.71535 18.06 9.54999C18.401 9.02453 18.553 8.39872 18.4913 7.77539C18.4295 7.15206 18.1575 6.56828 17.72 6.11999C17.7016 6.10549 17.6797 6.09622 17.6565 6.09315C17.6333 6.09007 17.6097 6.09331 17.5882 6.10253C17.5667 6.11174 17.5481 6.12659 17.5343 6.1455C17.5206 6.16442 17.5122 6.18669 17.51 6.20999C17.51 7.35999 16.47 6.99999 15.76 8.39999Z" stroke="white"/>
<path d="M9 10C9.0663 10 9.12989 10.0263 9.17678 10.0732C9.22366 10.1201 9.25 10.1837 9.25 10.25M8.75 10.25C8.75 10.1837 8.77634 10.1201 8.82322 10.0732C8.87011 10.0263 8.9337 10 9 10M9 10.5C8.9337 10.5 8.87011 10.4737 8.82322 10.4268C8.77634 10.3799 8.75 10.3163 8.75 10.25M9.25 10.25C9.25 10.3163 9.22366 10.3799 9.17678 10.4268C9.12989 10.4737 9.0663 10.5 9 10.5M9.75 7.5C9.8163 7.5 9.87989 7.52634 9.92678 7.57322C9.97366 7.62011 10 7.6837 10 7.75M9.5 7.75C9.5 7.6837 9.52634 7.62011 9.57322 7.57322C9.62011 7.52634 9.6837 7.5 9.75 7.5M9.75 8C9.6837 8 9.62011 7.97366 9.57322 7.92678C9.52634 7.87989 9.5 7.8163 9.5 7.75M10 7.75C10 7.8163 9.97366 7.87989 9.92678 7.92678C9.87989 7.97366 9.8163 8 9.75 8M12.25 7C12.3163 7 12.3799 7.02634 12.4268 7.07322C12.4737 7.12011 12.5 7.1837 12.5 7.25M12 7.25C12 7.1837 12.0263 7.12011 12.0732 7.07322C12.1201 7.02634 12.1837 7 12.25 7M12.25 7.5C12.1837 7.5 12.1201 7.47366 12.0732 7.42678C12.0263 7.37989 12 7.3163 12 7.25M12.5 7.25C12.5 7.3163 12.4737 7.37989 12.4268 7.42678C12.3799 7.47366 12.3163 7.5 12.25 7.5" stroke="white"/>
</svg>
