<svg width="24" height="24" viewBox="0 0 24 24" fill="none" xmlns="http://www.w3.org/2000/svg">
<g clip-path="url(#clip0_1525_6709)">
<path d="M13.6311 18.072C13.0421 17.4814 12.7114 16.6814 12.7114 15.8483C12.7114 14.1192 14.1335 12.6987 15.8611 12.6987C17.1524 12.6987 18.3194 13.4924 18.7918 14.694C18.9099 14.9948 19.2013 15.1932 19.5241 15.1932C19.7336 15.1932 19.9336 15.1113 20.0816 14.9633L22.5399 12.5034C23.1509 11.8924 23.1509 10.8876 22.5399 10.2766L20.0202 7.75687C21.3934 7.38993 22.3556 6.13637 22.3556 4.7143C22.3556 2.98672 20.9336 1.56465 19.206 1.56465C17.7839 1.56465 16.5304 2.52687 16.1634 3.90012L13.6437 1.38039C13.0327 0.769361 12.0279 0.769361 11.4169 1.38039L9.13497 3.66232C8.98694 3.81035 8.9019 4.01193 8.9019 4.22138C8.9019 4.48595 9.03576 4.7332 9.25624 4.87809C9.43262 4.99462 9.5964 5.12848 9.74601 5.27809C10.3129 5.8655 10.6295 6.64976 10.6295 7.46552C10.6295 9.19468 9.20899 10.6152 7.47983 10.6152C6.66407 10.6152 5.87981 10.2986 5.2924 9.7317C5.14279 9.58209 5.00893 9.41831 4.89239 9.24193C4.74751 9.02145 4.50026 8.88759 4.23569 8.88759C4.02624 8.88759 3.82466 8.97263 3.67663 9.12067L1.3821 11.39C0.77107 12.001 0.77107 13.0058 1.3821 13.6168L10.2909 22.5256C10.9019 23.1366 11.9067 23.1366 12.5177 22.5256L14.9776 20.0673C15.1256 19.9193 15.2091 19.7193 15.2091 19.5098C15.2091 19.1854 15.0091 18.894 14.7083 18.7759C14.3036 18.6184 13.9382 18.3791 13.6311 18.072Z" stroke="black"/>
</g>
<defs>
<clipPath id="clip0_1525_6709">
<rect width="24" height="24" fill="white"/>
</clipPath>
</defs>
</svg>
