<svg width="24" height="24" viewBox="0 0 24 24" fill="none" xmlns="http://www.w3.org/2000/svg">
<path d="M5.63305 14.6286C5.63305 15.8816 4.62035 16.8943 3.36734 16.8943C2.11434 16.8943 1.10164 15.8816 1.10164 14.6286C1.10164 13.3756 2.11434 12.3629 3.36734 12.3629H5.63305V14.6286ZM6.76591 14.6286C6.76591 13.3756 7.77861 12.3629 9.03161 12.3629C10.2846 12.3629 11.2973 13.3756 11.2973 14.6286V20.2928C11.2973 21.5459 10.2846 22.5586 9.03161 22.5586C7.77861 22.5586 6.76591 21.5459 6.76591 20.2928V14.6286ZM9.03161 5.53142C7.77861 5.53142 6.76591 4.51871 6.76591 3.26571C6.76591 2.0127 7.77861 1 9.03161 1C10.2846 1 11.2973 2.0127 11.2973 3.26571V5.53142H9.03161ZM9.03161 6.68143C10.2846 6.68143 11.2973 7.69414 11.2973 8.94714C11.2973 10.2001 10.2846 11.2128 9.03161 11.2128H3.35018C2.09718 11.2128 1.08447 10.2001 1.08447 8.94714C1.08447 7.69414 2.09718 6.68143 3.35018 6.68143H9.03161ZM18.1116 8.94714C18.1116 7.69414 19.1243 6.68143 20.3773 6.68143C21.6303 6.68143 22.643 7.69414 22.643 8.94714C22.643 10.2001 21.6303 11.2128 20.3773 11.2128H18.1116V8.94714ZM16.9788 8.94714C16.9788 10.2001 15.9661 11.2128 14.713 11.2128C13.46 11.2128 12.4473 10.2001 12.4473 8.94714V3.26571C12.4473 2.0127 13.46 1 14.713 1C15.9661 1 16.9788 2.0127 16.9788 3.26571V8.94714ZM14.713 18.0271C15.9661 18.0271 16.9788 19.0398 16.9788 20.2928C16.9788 21.5459 15.9661 22.5586 14.713 22.5586C13.46 22.5586 12.4473 21.5459 12.4473 20.2928V18.0271H14.713ZM14.713 16.8943C13.46 16.8943 12.4473 15.8816 12.4473 14.6286C12.4473 13.3756 13.46 12.3629 14.713 12.3629H20.3945C21.6475 12.3629 22.6602 13.3756 22.6602 14.6286C22.6602 15.8816 21.6475 16.8943 20.3945 16.8943H14.713Z" fill="white"/>
</svg>
