<svg width="24" height="24" viewBox="0 0 24 24" fill="none" xmlns="http://www.w3.org/2000/svg">
<path d="M9.50012 18.792L2.20012 11.271C1.34067 10.4282 0.771933 9.33359 0.576314 8.14585C0.380695 6.95811 0.568361 5.73894 1.11212 4.66501C1.53135 3.85117 2.13605 3.14729 2.8774 2.61017C3.61875 2.07306 4.47599 1.71775 5.37994 1.57294C6.28389 1.42812 7.20922 1.49784 8.08126 1.77648C8.9533 2.05512 9.74762 2.53487 10.4001 3.17701L12.0001 4.63601L13.6001 3.17701C14.2525 2.53487 15.0468 2.05511 15.9187 1.77647C16.7907 1.49783 17.716 1.4281 18.6198 1.57293C19.5237 1.71775 20.3809 2.07306 21.1221 2.61018C21.8634 3.1473 22.468 3.85119 22.8871 4.66501C23.4884 5.84883 23.6534 7.20664 23.3531 8.50001" stroke="#0A2233" stroke-linecap="round" stroke-linejoin="round"/>
<path d="M14.501 13.5H20.501M14.501 16.5H20.501M14.501 19.5H16.751M22.5 22.5H12.5C12.2348 22.5 11.9804 22.3946 11.7929 22.2071C11.6054 22.0196 11.5 21.7652 11.5 21.5V11.5C11.5 11.2348 11.6054 10.9804 11.7929 10.7929C11.9804 10.6054 12.2348 10.5 12.5 10.5H22.5C22.7652 10.5 23.0196 10.6054 23.2071 10.7929C23.3946 10.9804 23.5 11.2348 23.5 11.5V21.5C23.5 21.7652 23.3946 22.0196 23.2071 22.2071C23.0196 22.3946 22.7652 22.5 22.5 22.5Z" stroke="#0A2233" stroke-linecap="round" stroke-linejoin="round"/>
</svg>
