<svg width="24" height="24" viewBox="0 0 24 24" fill="none" xmlns="http://www.w3.org/2000/svg">
<g clip-path="url(#clip0_1526_7610)">
<path d="M12.2629 3.5C12.3124 3.5 12.3607 3.51466 12.4018 3.54213C12.4429 3.5696 12.475 3.60865 12.4939 3.65433C12.5128 3.70001 12.5178 3.75028 12.5081 3.79877C12.4985 3.84727 12.4747 3.89181 12.4397 3.92678C12.4048 3.96174 12.3602 3.98555 12.3117 3.9952C12.2632 4.00484 12.213 3.99989 12.1673 3.98097C12.1216 3.96205 12.0825 3.93 12.0551 3.88889C12.0276 3.84778 12.0129 3.79945 12.0129 3.75C12.0129 3.6837 12.0393 3.62011 12.0862 3.57322C12.133 3.52634 12.1966 3.5 12.2629 3.5Z" stroke="#0A2233" stroke-linecap="round" stroke-linejoin="round"/>
<path d="M17.763 23.5V19.5M14.763 23.5V20.5M19.763 10.5H14.263L14.963 3.48499C15.0029 3.10651 14.9629 2.72386 14.8454 2.36187C14.7279 1.99988 14.5356 1.66663 14.281 1.38375C14.0264 1.10086 13.7152 0.874667 13.3676 0.719833C13.0199 0.564998 12.6436 0.484985 12.263 0.484985C11.8824 0.484985 11.5061 0.564998 11.1584 0.719833C10.8108 0.874667 10.4995 1.10086 10.2449 1.38375C9.99035 1.66663 9.79807 1.99988 9.68059 2.36187C9.5631 2.72386 9.52303 3.10651 9.56298 3.48499L10.263 10.5H4.76298C4.23255 10.5 3.72384 10.7107 3.34877 11.0858C2.9737 11.4608 2.76298 11.9696 2.76298 12.5V14C2.76298 14.1326 2.81566 14.2598 2.90943 14.3535C3.0032 14.4473 3.13038 14.5 3.26298 14.5H21.263C21.3956 14.5 21.5228 14.4473 21.6165 14.3535C21.7103 14.2598 21.763 14.1326 21.763 14V12.5C21.763 11.9696 21.5523 11.4608 21.1772 11.0858C20.8021 10.7107 20.2934 10.5 19.763 10.5ZM20.763 17.8V14.5H3.76298V17.8C3.76264 19.548 3.26041 21.2591 2.31598 22.73C2.26756 22.8055 2.24032 22.8926 2.23713 22.9822C2.23395 23.0718 2.25492 23.1607 2.29787 23.2394C2.34081 23.3181 2.40415 23.3839 2.48123 23.4297C2.55831 23.4756 2.6463 23.4998 2.73598 23.5H4.23098C4.72544 23.5007 5.21241 23.3792 5.64857 23.1463C6.08473 22.9134 6.45656 22.5763 6.73098 22.165C7.62198 20.826 8.76298 19 8.76298 19V23C8.76298 23.1326 8.81566 23.2598 8.90943 23.3535C9.0032 23.4473 9.13038 23.5 9.26298 23.5H20.263C20.3956 23.5 20.5228 23.4473 20.6165 23.3535C20.7103 23.2598 20.763 23.1326 20.763 23V17.8Z" stroke="#0A2233" stroke-linecap="round" stroke-linejoin="round"/>
</g>
<defs>
<clipPath id="clip0_1526_7610">
<rect width="24" height="24" fill="white"/>
</clipPath>
</defs>
</svg>
