<svg width="24" height="24" viewBox="0 0 24 24" fill="none" xmlns="http://www.w3.org/2000/svg">
<path d="M16.4301 8.84002C16.499 8.84046 16.5671 8.82541 16.6294 8.79598C16.6917 8.76656 16.7466 8.72351 16.7901 8.67002C16.8337 8.61413 16.8644 8.54927 16.8799 8.48011C16.8955 8.41095 16.8955 8.3392 16.8801 8.27002C16.6283 7.16535 16.0088 6.17894 15.1232 5.47239C14.2375 4.76584 13.1381 4.38104 12.0051 4.38104C10.8721 4.38104 9.77268 4.76584 8.88699 5.47239C8.0013 6.17894 7.38183 7.16535 7.13007 8.27002C7.11219 8.34226 7.11101 8.41763 7.1266 8.49041C7.14219 8.56318 7.17416 8.63144 7.22007 8.69002C7.26711 8.74841 7.32645 8.79571 7.39386 8.82855C7.46127 8.86139 7.5351 8.87897 7.61007 8.88002L16.4301 8.84002Z" stroke="white"/>
<path d="M8 0.840027V1.84003C8 3.00003 8.92 4.06003 9.6 5.00003M16 0.840027V1.84003C16 3.00003 15.08 4.06003 14.4 5.00003M7 10.84V16.84C7 19 10 22 11.32 23.23C11.5049 23.4015 11.7478 23.4968 12 23.4968C12.2522 23.4968 12.4951 23.4015 12.68 23.23C14.05 22 17 19 17 16.84V10.84H7ZM7 10.84H5.75C4.37 10.84 3.46 11.84 2.5 12.84M7 14.85H5.75C4.37 14.85 3.46 15.85 2.5 16.85" stroke="white"/>
<path d="M7.63 18.84H6.25C4.87 18.84 3.96 19.84 3 20.84M17 10.84H18.25C19.63 10.84 20.54 11.84 21.5 12.84M17 14.85H18.25C19.63 14.85 20.54 15.85 21.5 16.85M16.37 18.84H17.75C19.13 18.84 20.04 19.84 21 20.84" stroke="white"/>
</svg>
