<svg width="24" height="24" viewBox="0 0 24 24" fill="none" xmlns="http://www.w3.org/2000/svg">
<path d="M5.5 4.498V19.498M5.5 19.498L2.5 16.498M5.5 19.498L8.5 16.498M20.4 23.5H16.8C16.7107 23.5 16.6231 23.4761 16.5462 23.4308C16.4693 23.3855 16.4059 23.3204 16.3627 23.2424C16.3194 23.1643 16.2978 23.0761 16.3002 22.9869C16.3025 22.8977 16.3287 22.8107 16.376 22.735L20.42 16.265C20.4671 16.1896 20.4933 16.103 20.4958 16.0141C20.4983 15.9252 20.4771 15.8373 20.4343 15.7594C20.3915 15.6814 20.3287 15.6163 20.2524 15.5707C20.176 15.5251 20.0889 15.5007 20 15.5H16.4M16.5 9.5V3.5C16.5 2.96957 16.7107 2.46086 17.0858 2.08579C17.4609 1.71071 17.9696 1.5 18.5 1.5C19.0304 1.5 19.5391 1.71071 19.9142 2.08579C20.2893 2.46086 20.5 2.96957 20.5 3.5V9.5M16.5 5.498H20.5" stroke="#0A2233" stroke-linecap="round" stroke-linejoin="round"/>
</svg>
