<svg width="24" height="24" viewBox="0 0 24 24" fill="none" xmlns="http://www.w3.org/2000/svg">
<path d="M20.49 12V11.75C20.49 11.1533 20.2529 10.581 19.831 10.159C19.409 9.73705 18.8367 9.5 18.24 9.5C17.6433 9.5 17.071 9.73705 16.649 10.159C16.2271 10.581 15.99 11.1533 15.99 11.75V12H13.25V15H13.5C14.0967 15 14.669 15.2371 15.091 15.659C15.5129 16.081 15.75 16.6533 15.75 17.25C15.75 17.8467 15.5129 18.419 15.091 18.841C14.669 19.2629 14.0967 19.5 13.5 19.5H13.25V22.5H22.5C22.7652 22.5 23.0196 22.3946 23.2071 22.2071C23.3946 22.0196 23.5 21.7652 23.5 21.5V12H20.49Z" stroke="black"/>
<path d="M13.5 15H13.25V12H10.74V12.25C10.74 12.8467 10.5029 13.419 10.081 13.841C9.65903 14.2629 9.08674 14.5 8.49 14.5C7.89326 14.5 7.32097 14.2629 6.89901 13.841C6.47705 13.419 6.24 12.8467 6.24 12.25V12H3V15H2.75C2.15326 15 1.58097 15.2371 1.15901 15.659C0.737053 16.081 0.5 16.6533 0.5 17.25C0.5 17.8467 0.737053 18.419 1.15901 18.841C1.58097 19.2629 2.15326 19.5 2.75 19.5H3V21.5C3 21.7652 3.10536 22.0196 3.29289 22.2071C3.48043 22.3946 3.73478 22.5 4 22.5H13.25V19.5H13.5C14.0967 19.5 14.669 19.2629 15.091 18.841C15.5129 18.419 15.75 17.8467 15.75 17.25C15.75 16.6533 15.5129 16.081 15.091 15.659C14.669 15.2371 14.0967 15 13.5 15Z" stroke="black"/>
<path d="M13.25 9H13C12.4033 9 11.831 8.76295 11.409 8.34099C10.9871 7.91903 10.75 7.34674 10.75 6.75C10.75 6.15326 10.9871 5.58097 11.409 5.15901C11.831 4.73705 12.4033 4.5 13 4.5H13.25V1.5H4C3.73478 1.5 3.48043 1.60536 3.29289 1.79289C3.10536 1.98043 3 2.23478 3 2.5V4.5H3.25C3.84674 4.5 4.41903 4.73705 4.84099 5.15901C5.26295 5.58097 5.5 6.15326 5.5 6.75C5.5 7.34674 5.26295 7.91903 4.84099 8.34099C4.41903 8.76295 3.84674 9 3.25 9H3V12H6.26V12.25C6.26 12.8467 6.49705 13.419 6.91901 13.841C7.34097 14.2629 7.91326 14.5 8.51 14.5C9.10674 14.5 9.67903 14.2629 10.101 13.841C10.5229 13.419 10.76 12.8467 10.76 12.25V12H13.27L13.25 9Z" stroke="black"/>
<path d="M20.49 1.5V1.75C20.49 2.34674 20.2529 2.91903 19.831 3.34099C19.409 3.76295 18.8367 4 18.24 4C17.6433 4 17.071 3.76295 16.649 3.34099C16.2271 2.91903 15.99 2.34674 15.99 1.75V1.5H13.25V4.5H13C12.4033 4.5 11.831 4.73705 11.409 5.15901C10.9871 5.58097 10.75 6.15326 10.75 6.75C10.75 7.34674 10.9871 7.91903 11.409 8.34099C11.831 8.76295 12.4033 9 13 9H13.25V12H16V11.75C16 11.1533 16.2371 10.581 16.659 10.159C17.081 9.73705 17.6533 9.5 18.25 9.5C18.8467 9.5 19.419 9.73705 19.841 10.159C20.2629 10.581 20.5 11.1533 20.5 11.75V12H23.5V2.5C23.5 2.23478 23.3946 1.98043 23.2071 1.79289C23.0196 1.60536 22.7652 1.5 22.5 1.5H20.49Z" stroke="black"/>
</svg>
