<svg width="24" height="24" viewBox="0 0 24 24" fill="none" xmlns="http://www.w3.org/2000/svg">
<path d="M1.5 15.5L6.531 1.77798C6.56642 1.68212 6.63037 1.59942 6.71422 1.54101C6.79807 1.48261 6.89781 1.45129 7 1.45129C7.10219 1.45129 7.20193 1.48261 7.28578 1.54101C7.36963 1.59942 7.43358 1.68212 7.469 1.77798L12.5 15.5M2.967 11.498H11.033M22.5 9.99998L13.186 23.04C13.1015 23.1581 12.9923 23.2564 12.866 23.3281C12.7397 23.3998 12.5992 23.4431 12.4545 23.455C12.3097 23.4669 12.1641 23.4471 12.0278 23.397C11.8914 23.3469 11.7676 23.2677 11.665 23.165L7.5 19" stroke="#0A2233" stroke-linecap="round" stroke-linejoin="round"/>
</svg>
